<svg xmlns="http://www.w3.org/2000/svg" width="128" height="64" xml:space="preserve" style="fill-rule:evenodd;clip-rule:evenodd;stroke-linejoin:round;stroke-miterlimit:1.41421;zoom:8"><path d="M120.438 32.593c0-11.046-8.955-20-20-20h-80c-11.046 0-20 8.954-20 20s8.954 20 20 20h80c11.045 0 20-8.954 20-20z" style="fill:#fff"/><path d="m100.566 12.469.13.002.128.002.13.002.128.004.128.005.128.005.128.006.128.007.127.008.128.008.127.009.127.01.126.01.127.013.126.012.126.013.126.014.125.015.125.016.125.016.125.017.125.018.124.018.124.02.124.02.123.02.123.022.123.023.123.023.123.024.122.024.122.026.121.026.122.027.121.026.121.028.12.03.12.03.12.03.12.031.12.033.118.031.12.035.118.034.118.034.118.036.117.036.118.037.117.038.116.038.117.039.116.039.115.04.116.042.115.042.114.042.115.043.114.044.113.044.227.09.225.095.224.096.222.099.221.1.22.105.217.107.216.109.215.112.213.114.212.117.21.119.21.12.206.125.205.127.204.129.202.13.2.135.2.136.196.138.195.14.193.143.192.145.19.148.188.149.186.152.184.154.183.156.18.158.18.16.175.163.175.165.172.166.171.169.17.17.165.173.165.175.162.176.161.179.158.18.156.183.154.184.152.186.15.188.147.19.145.192.143.193.14.195.138.197.136.199.134.2.131.202.13.204.126.205.124.207.121.209.12.21.116.212.114.213.112.215.11.216.106.218.104.219.101.22.1.223.095.224.094.225.091.226.044.114.044.114.043.115.042.114.042.115.041.116.041.115.04.116.038.117.038.116.038.117.037.118.036.117.035.118.035.118.034.119.034.119.032.119.032.119.031.12.031.12.03.12.03.12.027.12.027.122.027.122.026.12.026.123.024.122.024.123.023.123.023.123.021.123.021.123.02.124.02.124.018.124.018.125.017.125.016.125.016.125.015.125.014.126.013.126.012.126.012.127.011.126.01.127.01.127.007.128.008.127.007.128.006.128.005.128.005.128.003.129.003.129.002.128.002.13v.258l-.002.129-.002.129-.003.129-.003.129-.005.128-.005.128-.006.128-.007.128-.008.127-.008.128-.009.127-.01.127-.01.126-.013.127-.012.126-.013.126-.014.126-.015.125-.016.125-.016.125-.017.125-.018.125-.018.124-.02.124-.02.124-.02.123-.022.123-.023.123-.023.123-.024.121-.024.124-.026.121-.026.121-.027.123-.027.12-.028.122-.029.12-.03.12-.03.12-.032.12-.032.118-.032.12-.034.118-.034.12-.035.117-.035.118-.036.117-.037.118-.038.117-.038.116-.039.117-.039.116-.04.115-.042.116-.042.115-.042.114-.043.115-.044.114-.044.113-.09.227-.095.225-.096.223-.099.223-.1.22-.105.22-.107.218-.109.216-.112.215-.114.213-.117.212-.119.21-.12.21-.125.206-.127.206-.129.203-.13.203-.135.2-.136.198-.138.198-.14.195-.143.193-.145.191-.148.19-.149.188-.152.187-.154.183-.156.182-.158.182-.16.178-.163.177-.165.174-.166.172-.169.171-.17.17-.173.165-.175.165-.176.162-.179.161-.18.158-.183.156-.184.154-.186.152-.188.15-.19.147-.192.145-.193.144-.195.14-.197.137-.199.137-.2.134-.202.13-.204.13-.205.125-.207.125-.209.121-.21.12-.212.116-.213.114-.215.112-.216.11-.218.106-.219.104-.22.101-.223.1-.224.095-.225.094-.227.091-.113.044-.114.044-.115.043-.114.042-.115.042-.116.041-.115.04-.116.04-.117.04-.116.037-.117.038-.118.037-.117.036-.118.035-.118.035-.119.034-.119.034-.119.032-.119.032-.12.031-.12.031-.12.03-.12.03-.12.027-.122.027-.122.027-.12.026-.123.026-.122.024-.123.024-.123.023-.123.023-.123.021-.123.021-.124.02-.124.02-.124.018-.125.018-.125.017-.125.016-.125.016-.125.015-.126.014-.126.013-.126.012-.127.012-.126.011-.127.01-.127.01-.128.007-.127.008-.128.007-.128.006-.128.005-.128.005-.129.004-.129.002-.129.003-.129.002H20.308l-.129-.002-.129-.002-.129-.004-.129-.002-.128-.006-.128-.005-.128-.006-.128-.007-.127-.008-.128-.008-.127-.009-.127-.01-.126-.01-.127-.013-.126-.012-.126-.013-.126-.014-.125-.015-.125-.016-.125-.016-.125-.017-.125-.018-.124-.018-.124-.02-.124-.02-.123-.02-.123-.022-.123-.023-.123-.023-.123-.024-.122-.024-.122-.026-.12-.026-.123-.027-.12-.027-.122-.028-.12-.029-.12-.03-.12-.03-.12-.032-.119-.032-.119-.032-.119-.034-.119-.034-.118-.035-.118-.035-.117-.036-.118-.037-.117-.038-.116-.038-.117-.039-.116-.04-.115-.04-.116-.04-.115-.043-.114-.042-.115-.043-.114-.044-.113-.044-.227-.09-.225-.095-.224-.096-.222-.099-.22-.1-.22-.105-.218-.107-.216-.109-.215-.112-.213-.114-.212-.117-.21-.118-.209-.122-.207-.125-.205-.126-.204-.128-.202-.131-.2-.134-.199-.136-.197-.139-.195-.14-.193-.142-.192-.146-.19-.148-.188-.149-.186-.152-.184-.154-.183-.156-.18-.158-.179-.16-.176-.163-.175-.165-.172-.166-.17-.169-.17-.17-.166-.173-.165-.175-.162-.175-.16-.18-.159-.18-.156-.183-.154-.184-.152-.185-.149-.189-.148-.19-.145-.191-.143-.194-.14-.194-.138-.197-.136-.2-.134-.2-.13-.202-.13-.203-.127-.206-.124-.206-.12-.21-.12-.21-.117-.212-.114-.213-.112-.215-.109-.216-.107-.218-.104-.22-.1-.22-.1-.223-.096-.223-.094-.225-.09-.227-.045-.113-.044-.114-.043-.115-.042-.114-.042-.115-.04-.116L1.526 39l-.039-.116-.039-.117-.038-.116-.038-.117-.037-.118-.036-.117-.035-.118-.035-.118-.034-.119-.034-.119-.032-.119-.032-.119-.03-.12-.032-.12-.03-.12-.029-.12-.028-.12-.027-.121-.027-.123-.026-.12-.026-.123-.024-.123-.024-.121-.023-.124-.023-.122-.02-.123-.022-.123-.02-.124-.02-.124-.018-.124-.018-.125-.017-.125-.016-.125-.016-.125-.015-.125-.014-.126-.013-.126-.012-.126-.012-.127-.01-.126-.01-.127-.01-.127-.008-.128-.008-.127-.007-.128-.006-.128-.005-.128-.005-.128-.003-.13-.003-.128-.002-.13-.002-.128v-.258l.002-.13.002-.128.003-.13.003-.128.005-.128.005-.128.006-.128.007-.128.008-.127.008-.128.01-.127.01-.127.01-.126.012-.127.012-.126.013-.126.014-.126.015-.125.016-.125.016-.125.017-.125.018-.125.018-.124.02-.124.02-.124.021-.123.021-.123.023-.123.023-.123.024-.123.024-.122.026-.122.026-.121.027-.122.027-.121.028-.121.03-.12.03-.12.03-.12.031-.12.032-.12.032-.118.034-.12.034-.118.035-.118.035-.118.036-.117.037-.118.038-.117.038-.116.04-.117.038-.116.041-.115.041-.116.042-.115.042-.114.043-.115.044-.114.044-.114.091-.226.094-.225.096-.224.1-.222.1-.221.104-.22.107-.217.11-.216.111-.215.114-.213.117-.212.12-.21.12-.21.124-.206.127-.205.13-.204.13-.202.134-.2.136-.2.138-.196.14-.195.143-.193.145-.192.148-.19.15-.188.151-.186.154-.184.156-.183.158-.18.161-.18.162-.175.165-.175.166-.173.17-.17.17-.17.172-.165.175-.165.176-.162.18-.161.18-.158.182-.156.184-.154.186-.152.188-.15.19-.147.192-.145.193-.143.195-.14.197-.138.2-.136.2-.134.201-.131.204-.13.205-.126.207-.124.21-.121.21-.12.211-.116.213-.114.215-.113.216-.109.218-.107.22-.103.22-.101.222-.1.224-.095.225-.095.227-.09.113-.044.114-.044.115-.044.114-.041.115-.042.116-.041.115-.041.116-.04.117-.038.116-.038.117-.038.118-.037.117-.037.118-.035.118-.034.12-.035.118-.034.12-.032.118-.032.12-.03.12-.032.12-.03.12-.029.121-.028.121-.027.122-.027.121-.026.122-.026.122-.024.123-.023.123-.023.123-.023.123-.021.123-.021.124-.02.124-.02.124-.018.125-.018.125-.018.125-.015.125-.017.125-.014.126-.015.126-.012.126-.012.127-.013.126-.01.127-.01.127-.01.128-.007.127-.008.128-.007.128-.006.128-.005.128-.005.13-.004.128-.002.13-.003.128-.002h80.258m-80.126 2h-.12l-.116.002-.116.001-.117.004-.115.003-.116.004-.115.005-.115.005-.115.007-.115.007-.115.007-.114.009-.114.009-.114.009-.114.01-.114.012-.113.012-.113.012-.113.014-.113.014-.113.013-.112.016-.112.016-.112.016-.111.018-.112.019-.111.019-.111.019-.11.02-.111.02-.11.023-.11.022-.11.022-.11.024-.108.024-.11.025-.108.025-.108.026-.108.027-.108.028-.108.028-.107.028-.107.03-.107.03-.106.03-.107.03-.106.033-.105.033-.106.032-.105.034-.105.035-.104.035-.105.036-.104.036-.104.036-.103.039-.103.038-.103.039-.103.039-.1.039-.205.083-.203.084-.201.086-.2.089-.198.09-.198.095-.196.096-.194.098-.194.1-.191.103-.191.105-.19.108-.187.109-.186.112-.185.114-.183.116-.182.118-.181.12-.178.122-.178.125-.175.126-.175.129-.172.13-.171.133-.17.135-.167.137-.166.138-.164.14-.163.143-.16.145-.16.146-.157.148-.155.15-.154.152-.152.154-.15.155-.148.158-.146.159-.145.16-.142.163-.141.164-.138.166-.137.168-.135.169-.132.17-.131.173-.13.175-.125.175-.125.178-.122.178-.12.18-.118.183-.116.183-.114.185-.112.186-.11.188-.107.189-.105.19-.102.192-.101.194-.098.194-.096.196-.094.198-.091.198-.09.2-.085.2-.084.204-.083.206-.04.099-.038.103-.04.103-.038.103-.037.103-.037.104-.036.104-.036.104-.035.105-.034.105-.034.105-.033.106-.033.105-.031.106-.032.107-.03.106-.03.107-.03.107-.028.107-.028.108-.028.108-.027.108-.026.108-.025.109-.025.109-.024.109-.023.11-.023.109-.022.11-.022.11-.021.11-.02.11-.02.112-.018.11-.018.113-.017.11-.017.113-.016.112-.016.112-.014.113-.014.113-.014.113-.012.113-.012.113-.011.114-.011.114-.01.114-.008.114-.01.114-.006.115-.007.115-.007.115-.005.115-.005.116-.004.116-.003.115-.003.117-.002.116-.001.116V32.702l.003.116.003.117.003.115.004.116.005.116.005.115.007.115.007.115.007.115.009.114.009.114.009.114.01.114.012.114.012.113.012.113.014.113.014.112.014.114.016.111.016.113.017.112.017.11.018.113.019.11.019.112.02.11.02.11.023.11.022.11.023.11.023.11.024.108.025.11.025.108.026.109.027.107.028.108.028.108.028.107.03.107.03.107.03.106.032.107.03.106.034.105.033.106.034.105.034.105.035.104.036.105.036.104.037.104.038.103.038.103.038.103.04.103.039.1.083.205.084.203.086.201.089.2.09.198.095.198.096.196.098.194.1.194.103.191.105.191.108.19.109.187.112.187.114.184.116.184.118.182.12.18.122.179.125.177.126.175.129.174.13.173.133.171.135.17.137.167.138.166.14.164.143.163.145.16.146.16.148.157.15.155.152.154.154.152.155.15.158.148.159.146.16.145.163.142.164.141.166.138.168.137.169.135.17.132.173.131.175.13.175.125.178.125.178.122.18.12.183.118.183.116.185.114.186.112.188.11.189.107.19.105.192.102.194.101.194.098.196.096.198.094.198.091.2.09.2.085.204.084.206.083.099.04.103.038.103.04.103.037.103.038.104.037.104.036.105.036.104.035.105.034.105.034.106.033.105.033.106.031.107.032.106.03.107.03.107.03.107.028.108.028.108.028.108.027.108.026.109.025.109.025.109.024.11.023.109.023.11.022.11.022.11.021.11.02.112.02.11.018.113.018.11.017.113.017.112.016.112.016.113.014.113.014.113.013.113.013.113.012.114.011.114.011.114.01.114.008.114.01.115.006.115.007.115.006.115.006.116.005.116.004.115.003.116.003.116.001.116.002H100.556l.115-.002h.117l.116-.004.116-.003.115-.004.117-.005.114-.006.116-.006.114-.007.115-.007.114-.009.114-.009.114-.009.114-.01.115-.012.112-.012.114-.013.112-.013.114-.014.112-.014.113-.016.111-.016.112-.017.111-.017.112-.018.111-.019.111-.019.11-.02.111-.02.11-.023.11-.022.11-.023.11-.023.108-.024.11-.025.108-.025.108-.026.108-.027.108-.028.108-.028.107-.028.107-.03.107-.03.106-.03.107-.032.106-.03.105-.034.106-.033.105-.034.105-.034.104-.035.105-.036.104-.036.104-.037.103-.038.103-.038.103-.039.103-.039.1-.039.205-.083.203-.084.201-.086.2-.089.198-.09.198-.095.196-.096.194-.098.194-.1.191-.103.191-.105.19-.108.187-.109.186-.112.185-.114.183-.116.182-.118.181-.12.178-.122.178-.125.175-.126.174-.129.173-.13.171-.133.17-.135.167-.137.166-.138.164-.14.163-.143.16-.145.16-.146.157-.148.155-.15.154-.152.152-.154.15-.155.148-.158.146-.159.145-.16.142-.163.141-.164.138-.166.137-.168.135-.169.132-.17.132-.174.128-.174.127-.175.125-.178.122-.178.12-.18.118-.182.116-.183.114-.185.112-.187.109-.187.107-.19.106-.19.102-.193.1-.193.099-.194.096-.196.094-.198.09-.198.09-.2.085-.2.085-.204.082-.206.04-.099.038-.103.04-.103.037-.103.039-.103.036-.104.037-.104.036-.105.035-.104.033-.105.035-.105.033-.106.033-.105.032-.106.03-.107.03-.106.03-.107.03-.107.029-.108.028-.107.028-.108.027-.107.026-.108.025-.11.025-.108.024-.11.023-.11.023-.108.022-.11.022-.11.02-.111.02-.11.02-.111.019-.111.018-.112.017-.111.017-.112.016-.112.016-.112.014-.113.014-.113.014-.113.012-.113.012-.113.01-.114.012-.114.009-.114.009-.114.009-.114.007-.115.007-.115.007-.115.005-.115.005-.116.004-.116.003-.115.003-.117.002-.116v-.466l-.002-.117-.003-.116-.003-.115-.004-.116-.005-.116-.005-.115-.007-.115-.007-.115-.007-.115-.01-.114-.008-.114-.01-.114-.01-.114-.011-.114-.012-.113-.012-.113-.014-.113-.014-.113-.014-.113-.016-.112-.016-.112-.017-.112-.017-.111-.018-.112-.02-.111-.018-.111-.02-.11-.021-.111-.022-.11-.022-.11-.023-.11-.023-.11-.024-.108-.025-.11-.025-.108-.026-.108-.027-.108-.028-.108-.028-.108-.028-.107-.03-.107-.03-.107-.03-.106-.031-.107-.032-.106-.033-.105-.033-.106-.034-.105-.034-.105-.036-.105-.035-.104-.036-.104-.038-.104-.037-.103-.039-.103-.038-.103-.04-.103-.038-.1-.084-.205-.083-.203-.087-.201-.088-.2-.092-.198-.093-.198-.096-.196-.098-.194-.101-.194-.102-.192-.105-.19-.109-.19-.108-.187-.112-.186-.114-.185-.116-.183-.118-.182-.12-.181-.122-.178-.125-.178-.126-.175-.13-.175-.13-.172-.133-.171-.135-.17-.137-.167-.138-.166-.14-.164-.143-.163-.145-.16-.146-.16-.148-.157-.15-.155-.152-.154-.154-.152-.155-.15-.158-.148-.159-.146-.16-.145-.163-.142-.164-.141-.166-.138-.168-.137-.169-.135-.17-.132-.174-.131-.174-.13-.175-.125-.178-.125-.178-.122-.18-.12-.183-.118-.183-.116-.185-.114-.186-.112-.188-.11-.189-.107-.19-.105-.192-.102-.194-.101-.194-.098-.196-.096-.198-.094-.198-.091-.2-.09-.2-.085-.204-.084-.206-.083-.099-.04-.103-.04-.103-.037-.103-.038-.103-.038-.104-.037-.104-.036-.105-.036-.104-.035-.105-.034-.105-.034-.106-.033-.105-.033-.106-.032-.107-.031-.106-.03-.107-.03-.107-.03-.107-.028-.108-.028-.108-.028-.108-.027-.108-.026-.109-.025-.109-.025-.109-.024-.11-.024-.109-.022-.11-.022-.11-.022-.11-.021-.11-.02-.112-.02-.11-.018-.113-.018-.11-.018-.113-.016-.112-.016-.111-.016-.114-.014-.112-.014-.114-.014-.112-.012-.114-.012-.113-.011-.115-.011-.114-.01-.114-.008-.114-.01-.115-.006-.115-.007-.115-.007-.114-.005-.117-.005-.115-.004-.116-.003-.116-.003-.117-.002-.115-.001H20.44z" style="fill:#73a4f0"/><path d="M32.65 23.525c-.3-2.4-2.1-3.7-4.5-3.7-2.6 0-4.7 1.9-4.7 5.2 0 3.3 2 5.2 4.7 5.2s4.2-1.7 4.5-3.6h-2.2c-.2 1.1-1.1 1.7-2.2 1.7-1.6 0-2.6-1.1-2.6-3.3 0-2.1 1-3.3 2.6-3.3 1.2 0 2 .7 2.2 1.8zm4.9 6.7c2.3 0 3.8-1.5 3.8-3.9s-1.5-3.9-3.8-3.9-3.7 1.5-3.7 3.9 1.4 3.9 3.7 3.9zm0-1.6c-1 0-1.6-1-1.6-2.3 0-1.3.6-2.3 1.6-2.3 1.1 0 1.6 1 1.6 2.3 0 1.3-.5 2.3-1.6 2.3zm7.3-2.9c0-1 .6-1.6 1.4-1.6.9 0 1.4.6 1.4 1.5v4.5h2.1v-4.9c0-1.7-1-2.8-2.6-2.8-1.2 0-2 .5-2.3 1.4h-.1v-1.3h-2v7.6h2.1zm10.6-3.2h-1.4v-1.9h-2.1v1.9h-1.1v1.6h1.1v3.9c0 1.5 1 2.3 2.5 2.2.6 0 1-.1 1.2-.2l-.4-1.6c-.1 0-.3.1-.5.1-.4 0-.7-.2-.7-.7v-3.7h1.4zm1.4 7.6h2.1v-4.3c0-1 .7-1.6 1.6-1.6.3 0 .7 0 .9.1v-1.9h-.6c-.9 0-1.6.5-1.9 1.4v-1.3h-2.1zm5.7 0h2.2v-7.6h-2.2zm1.1-8.6c.6 0 1.1-.5 1.1-1.1 0-.6-.5-1.1-1.1-1.1-.6 0-1.1.5-1.1 1.1 0 .6.5 1.1 1.1 1.1zm2.8 8.6h2.1v-1.2h.1c.3.6.9 1.3 2.1 1.3 1.8 0 3.1-1.4 3.1-3.9 0-2.6-1.4-3.9-3.1-3.9-1.2 0-1.9.7-2.1 1.3h-.1v-3.8h-2.1zm2.1-3.8c0-1.4.5-2.3 1.6-2.3 1 0 1.6 1 1.6 2.3 0 1.3-.6 2.2-1.6 2.2-1.1 0-1.6-.9-1.6-2.2zm11.6.5c0 1.1-.7 1.6-1.4 1.6-.8 0-1.3-.6-1.3-1.5v-4.4h-2.2v4.8c0 1.8 1.1 2.9 2.6 2.9 1.2 0 2-.6 2.3-1.5h.1v1.4h2v-7.6h-2.1zm7.9-4.3h-1.4v-1.9h-2.2v1.9h-1v1.6h1v3.9c0 1.5 1.1 2.3 2.6 2.2.5 0 .9-.1 1.1-.2l-.3-1.6c-.1 0-.3.1-.5.1-.4 0-.7-.2-.7-.7v-3.7h1.4zm4.9 7.7c1.8 0 3.1-.9 3.4-2.3l-1.9-.1c-.3.6-.8.9-1.5.9-1.1 0-1.7-.7-1.7-1.9h5.2v-.6c0-2.6-1.6-3.8-3.6-3.8-2.3 0-3.7 1.6-3.7 3.9 0 2.4 1.4 3.9 3.8 3.9zm-1.7-4.7c0-.9.7-1.6 1.6-1.6.9 0 1.6.7 1.6 1.6z" fill="#73a4f0"/><g><path d="M19.75 44.225c1.4 0 2.4-1.1 2.4-2.8 0-1.7-1-2.8-2.4-2.8-1.5 0-2.4 1.1-2.4 2.8 0 1.7.9 2.8 2.4 2.8zm0-.6c-1.2 0-1.8-1-1.8-2.2 0-1.2.6-2.3 1.8-2.3 1.1 0 1.7 1.1 1.7 2.3 0 1.2-.6 2.2-1.7 2.2zm4.4-2.9c0-1 .6-1.5 1.5-1.5.8 0 1.3.5 1.3 1.4v3.5h.7v-3.5c0-1.3-.8-2-1.9-2-.8 0-1.3.3-1.6.9v-.9h-.7v5.5h.7zm14-.2c0-2.3-1.3-3.8-3.1-3.8s-3.1 1.5-3.1 3.8c0 2.2 1.3 3.7 3.1 3.7s3.1-1.5 3.1-3.7zm-.6 0c0 1.9-1.1 3.1-2.5 3.1s-2.5-1.2-2.5-3.1c0-2 1.1-3.1 2.5-3.1s2.5 1.1 2.5 3.1zm2.1 5.6h.6v-3h.1c.2.5.7 1.1 1.7 1.1 1.3 0 2.2-1.1 2.2-2.8 0-1.7-.9-2.8-2.2-2.8-1 0-1.5.6-1.7 1.1h-.1v-1.1h-.6zm.6-4.7c0-1.3.6-2.3 1.7-2.3s1.7 1 1.7 2.3c0 1.2-.6 2.2-1.7 2.2s-1.7-.9-1.7-2.2zm7.6 2.8c1.1 0 1.8-.6 2.1-1.3l-.6-.2c-.2.5-.7.9-1.5.9-1.1 0-1.8-.8-1.8-2h4v-.4c0-1.8-1.1-2.6-2.3-2.6-1.4 0-2.4 1.2-2.4 2.8 0 1.7 1 2.8 2.5 2.8zm-1.8-3.2c0-1 .7-1.9 1.7-1.9s1.7.9 1.7 1.9zm6-.3c0-1 .7-1.5 1.5-1.5.9 0 1.4.5 1.4 1.4v3.5h.6v-3.5c0-1.3-.7-2-1.8-2-.8 0-1.4.3-1.6.9h-.1v-.9h-.6v5.5h.6zm13.9-1.6c-.3-1.3-1.4-2.4-2.9-2.4-1.9 0-3.2 1.5-3.2 3.8 0 2.2 1.3 3.7 3.2 3.7 1.5 0 2.6-1 2.9-2.4h-.7c-.2 1-1.1 1.8-2.2 1.8-1.4 0-2.5-1.1-2.5-3.1s1.1-3.1 2.5-3.1c1.1 0 2 .7 2.2 1.7zm3.5 5.1c1.4 0 2.4-1.1 2.4-2.8 0-1.7-1-2.8-2.4-2.8s-2.4 1.1-2.4 2.8c0 1.7 1 2.8 2.4 2.8zm0-.6c-1.1 0-1.8-1-1.8-2.2 0-1.2.7-2.3 1.8-2.3s1.8 1.1 1.8 2.3c0 1.2-.7 2.2-1.8 2.2zm4.4-6.8h-.6v7.3h.6zm2.3 0h-.6v7.3h.6zm3.9 7.4c1.1 0 1.8-.6 2.1-1.3l-.6-.2c-.2.5-.7.9-1.5.9-1.1 0-1.8-.8-1.9-2h4.1v-.4c0-1.8-1.1-2.6-2.3-2.6-1.4 0-2.4 1.2-2.4 2.8 0 1.7 1 2.8 2.5 2.8zm-1.8-3.2c0-1 .7-1.9 1.7-1.9s1.7.9 1.7 1.9zm7.5 3.2c1.2 0 2-.7 2.1-1.7h-.6c-.2.7-.7 1.1-1.5 1.1-1 0-1.7-.9-1.7-2.2 0-1.3.7-2.3 1.7-2.3.8 0 1.3.5 1.5 1.2h.6c-.1-1-1-1.7-2.1-1.7-1.4 0-2.4 1.2-2.4 2.8 0 1.6 1 2.8 2.4 2.8zm5.6-5.6h-1.1v-1.3h-.7v1.3h-.8v.6h.8v3.6c0 .9.7 1.4 1.4 1.4.3 0 .5-.1.6-.1l-.1-.6c-.1 0-.3.1-.4.1-.4 0-.8-.2-.8-.9v-3.5h1.1zm1.5 5.5h.6v-5.5h-.6zm.3-6.4c.2 0 .5-.2.5-.4 0-.3-.3-.5-.5-.5-.3 0-.5.2-.5.5 0 .2.2.4.5.4zm6.2.9h-.7l-1.6 4.7h-.1l-1.6-4.7h-.7l2 5.5h.7zm3.4 5.6c1.1 0 1.9-.6 2.1-1.3l-.6-.2c-.2.5-.7.9-1.5.9-1.1 0-1.8-.8-1.8-2h4v-.4c0-1.8-1.1-2.6-2.3-2.6-1.4 0-2.4 1.2-2.4 2.8 0 1.7 1 2.8 2.5 2.8zm-1.8-3.2c0-1 .7-1.9 1.7-1.9s1.7.9 1.7 1.9z" fill="#5e6b7b"/></g></svg>