<?xml version="1.0" standalone="yes"?>
<!DOCTYPE svg PUBLIC "-//W3C//DTD SVG 1.1//EN" "http://www.w3.org/Graphics/SVG/1.1/DTD/svg11.dtd">
<svg xmlns="http://www.w3.org/2000/svg" xmlns:xlink="http://www.w3.org/1999/xlink" width="128" height="64" viewBox="0 0 128 64" version="1.1" xml:space="preserve" style="fill-rule:evenodd;clip-rule:evenodd;stroke-linejoin:round;stroke-miterlimit:1.41421;zoom: 8;"><g visibility="visible"><path d="M120.4375,32.593498 c0,-11.046 -8.954,-20 -20,-20 c-22.196,0 -57.804,0 -80,0 c-11.046,0 -20,8.954 -20,20 c0,0 0,0 0,0 c0,11.046 8.954,20 20,20 c22.196,0 57.804,0 80,0 c11.046,0 20,-8.954 20,-20 c0,0 0,0 0,0  Z " style="fill:#fff;"></path><path d="M100.566498,12.4685 l0.129,0.002 l0.129,0.002 l0.129,0.002 l0.129,0.004 l0.128,0.005 l0.128,0.005 l0.128,0.006 l0.128,0.007 l0.127,0.008 l0.128,0.008 l0.127,0.009 l0.127,0.01 l0.126,0.011 l0.127,0.012 l0.126,0.012 l0.126,0.013 l0.126,0.014 l0.125,0.015 l0.125,0.016 l0.125,0.016 l0.125,0.017 l0.125,0.018 l0.124,0.018 l0.124,0.02 l0.124,0.02 l0.123,0.021 l0.123,0.021 l0.123,0.023 l0.123,0.023 l0.123,0.024 l0.122,0.024 l0.122,0.026 l0.121,0.026 l0.122,0.027 l0.121,0.027 l0.121,0.028 l0.12,0.029 l0.12,0.03 l0.12,0.031 l0.12,0.031 l0.119,0.032 l0.119,0.032 l0.119,0.034 l0.119,0.034 l0.118,0.034 l0.118,0.036 l0.117,0.036 l0.118,0.037 l0.117,0.038 l0.116,0.038 l0.117,0.039 l0.116,0.039 l0.115,0.041 l0.116,0.041 l0.115,0.042 l0.114,0.042 l0.115,0.043 l0.114,0.044 l0.113,0.044 l0.227,0.091 l0.225,0.094 l0.224,0.096 l0.222,0.099 l0.221,0.101 l0.219,0.104 l0.218,0.107 l0.216,0.109 l0.215,0.112 l0.213,0.114 l0.212,0.117 l0.21,0.119 l0.209,0.121 l0.207,0.124 l0.205,0.127 l0.204,0.129 l0.202,0.131 l0.2,0.134 l0.199,0.136 l0.197,0.138 l0.195,0.14 l0.193,0.143 l0.192,0.145 l0.19,0.148 l0.188,0.149 l0.186,0.152 l0.184,0.154 l0.183,0.156 l0.18,0.158 l0.179,0.161 l0.176,0.162 l0.175,0.165 l0.172,0.166 l0.171,0.169 l0.169,0.17 l0.166,0.173 l0.165,0.175 l0.162,0.176 l0.161,0.179 l0.158,0.18 l0.156,0.183 l0.154,0.184 l0.152,0.186 l0.149,0.188 l0.148,0.19 l0.145,0.192 l0.143,0.193 l0.14,0.195 l0.138,0.197 l0.136,0.199 l0.134,0.2 l0.131,0.202 l0.129,0.204 l0.127,0.205 l0.124,0.207 l0.121,0.209 l0.119,0.21 l0.117,0.212 l0.114,0.213 l0.112,0.215 l0.109,0.216 l0.107,0.218 l0.104,0.219 l0.101,0.221 l0.099,0.222 l0.096,0.224 l0.094,0.225 l0.091,0.226 l0.044,0.114 l0.044,0.114 l0.043,0.115 l0.042,0.114 l0.042,0.115 l0.041,0.116 l0.041,0.115 l0.039,0.116 l0.039,0.117 l0.038,0.116 l0.038,0.117 l0.037,0.118 l0.036,0.117 l0.035,0.118 l0.035,0.118 l0.034,0.119 l0.034,0.119 l0.032,0.119 l0.032,0.119 l0.031,0.12 l0.031,0.12 l0.03,0.12 l0.029,0.12 l0.028,0.121 l0.027,0.121 l0.027,0.122 l0.026,0.121 l0.026,0.122 l0.024,0.122 l0.024,0.123 l0.023,0.123 l0.023,0.123 l0.021,0.123 l0.021,0.123 l0.02,0.124 l0.02,0.124 l0.018,0.124 l0.018,0.125 l0.017,0.125 l0.016,0.125 l0.016,0.125 l0.015,0.125 l0.014,0.126 l0.013,0.126 l0.012,0.126 l0.012,0.127 l0.011,0.126 l0.01,0.127 l0.009,0.127 l0.008,0.128 l0.008,0.127 l0.007,0.128 l0.006,0.128 l0.005,0.128 l0.005,0.128 l0.003,0.129 l0.003,0.129 l0.002,0.128 l0.002,0.13 l0,0.129 l0,0.129 l-0.002,0.129 l-0.002,0.129 l-0.003,0.129 l-0.003,0.129 l-0.005,0.128 l-0.005,0.128 l-0.006,0.128 l-0.007,0.128 l-0.008,0.127 l-0.008,0.128 l-0.009,0.127 l-0.01,0.127 l-0.011,0.126 l-0.012,0.127 l-0.012,0.126 l-0.013,0.126 l-0.014,0.126 l-0.015,0.125 l-0.016,0.125 l-0.016,0.125 l-0.017,0.125 l-0.018,0.125 l-0.018,0.124 l-0.02,0.124 l-0.02,0.124 l-0.021,0.123 l-0.021,0.123 l-0.023,0.123 l-0.023,0.123 l-0.024,0.122 l-0.024,0.123 l-0.026,0.122 l-0.026,0.121 l-0.027,0.122 l-0.027,0.121 l-0.028,0.121 l-0.029,0.12 l-0.03,0.12 l-0.031,0.12 l-0.031,0.12 l-0.032,0.119 l-0.032,0.119 l-0.034,0.119 l-0.034,0.119 l-0.035,0.118 l-0.035,0.118 l-0.036,0.117 l-0.037,0.118 l-0.038,0.117 l-0.038,0.116 l-0.039,0.117 l-0.039,0.116 l-0.041,0.115 l-0.041,0.116 l-0.042,0.115 l-0.042,0.114 l-0.043,0.115 l-0.044,0.114 l-0.044,0.113 l-0.091,0.227 l-0.094,0.225 l-0.096,0.223 l-0.099,0.223 l-0.101,0.22 l-0.104,0.22 l-0.107,0.218 l-0.109,0.216 l-0.112,0.215 l-0.114,0.213 l-0.117,0.212 l-0.119,0.21 l-0.121,0.209 l-0.124,0.207 l-0.127,0.205 l-0.129,0.204 l-0.131,0.202 l-0.134,0.2 l-0.136,0.199 l-0.138,0.197 l-0.14,0.195 l-0.143,0.193 l-0.145,0.192 l-0.148,0.19 l-0.149,0.188 l-0.152,0.186 l-0.154,0.184 l-0.156,0.182 l-0.158,0.181 l-0.161,0.179 l-0.162,0.176 l-0.165,0.175 l-0.166,0.172 l-0.169,0.171 l-0.171,0.169 l-0.172,0.166 l-0.175,0.165 l-0.176,0.162 l-0.179,0.161 l-0.18,0.158 l-0.183,0.156 l-0.184,0.154 l-0.186,0.152 l-0.188,0.149 l-0.19,0.148 l-0.192,0.145 l-0.193,0.143 l-0.195,0.14 l-0.197,0.138 l-0.199,0.136 l-0.2,0.134 l-0.202,0.131 l-0.204,0.129 l-0.205,0.126 l-0.207,0.125 l-0.209,0.121 l-0.21,0.119 l-0.212,0.117 l-0.213,0.114 l-0.215,0.112 l-0.216,0.109 l-0.218,0.107 l-0.219,0.104 l-0.221,0.101 l-0.222,0.099 l-0.224,0.096 l-0.225,0.094 l-0.227,0.091 l-0.113,0.044 l-0.114,0.044 l-0.115,0.043 l-0.114,0.042 l-0.115,0.042 l-0.116,0.041 l-0.115,0.04 l-0.116,0.04 l-0.117,0.039 l-0.116,0.038 l-0.117,0.038 l-0.118,0.037 l-0.117,0.036 l-0.118,0.035 l-0.118,0.035 l-0.119,0.034 l-0.119,0.034 l-0.119,0.032 l-0.119,0.032 l-0.12,0.031 l-0.12,0.031 l-0.12,0.03 l-0.12,0.029 l-0.121,0.028 l-0.121,0.027 l-0.122,0.027 l-0.121,0.026 l-0.122,0.026 l-0.122,0.024 l-0.123,0.024 l-0.123,0.023 l-0.123,0.023 l-0.123,0.021 l-0.123,0.021 l-0.124,0.02 l-0.124,0.02 l-0.124,0.018 l-0.125,0.018 l-0.125,0.017 l-0.125,0.016 l-0.125,0.016 l-0.125,0.015 l-0.126,0.014 l-0.126,0.013 l-0.126,0.012 l-0.127,0.012 l-0.126,0.011 l-0.127,0.01 l-0.127,0.009 l-0.128,0.008 l-0.127,0.008 l-0.128,0.007 l-0.128,0.006 l-0.128,0.005 l-0.128,0.005 l-0.129,0.003 l-0.129,0.003 l-0.129,0.002 l-0.129,0.002 l-0.129,0 l-80,0 l-0.129,0 l-0.129,-0.002 l-0.129,-0.002 l-0.129,-0.003 l-0.129,-0.003 l-0.128,-0.005 l-0.128,-0.005 l-0.128,-0.006 l-0.128,-0.007 l-0.127,-0.008 l-0.128,-0.008 l-0.127,-0.009 l-0.127,-0.01 l-0.126,-0.011 l-0.127,-0.012 l-0.126,-0.012 l-0.126,-0.013 l-0.126,-0.014 l-0.125,-0.015 l-0.125,-0.016 l-0.125,-0.016 l-0.125,-0.017 l-0.125,-0.018 l-0.124,-0.018 l-0.124,-0.02 l-0.124,-0.02 l-0.123,-0.021 l-0.123,-0.021 l-0.123,-0.023 l-0.123,-0.023 l-0.123,-0.024 l-0.122,-0.024 l-0.122,-0.026 l-0.121,-0.026 l-0.122,-0.027 l-0.121,-0.027 l-0.121,-0.028 l-0.12,-0.029 l-0.12,-0.03 l-0.12,-0.031 l-0.12,-0.031 l-0.119,-0.032 l-0.119,-0.032 l-0.119,-0.034 l-0.119,-0.034 l-0.118,-0.035 l-0.118,-0.035 l-0.117,-0.036 l-0.118,-0.037 l-0.117,-0.038 l-0.116,-0.038 l-0.117,-0.039 l-0.116,-0.04 l-0.115,-0.04 l-0.116,-0.041 l-0.115,-0.042 l-0.114,-0.042 l-0.115,-0.043 l-0.114,-0.044 l-0.113,-0.044 l-0.227,-0.091 l-0.225,-0.094 l-0.224,-0.096 l-0.222,-0.099 l-0.221,-0.101 l-0.219,-0.104 l-0.218,-0.107 l-0.216,-0.109 l-0.215,-0.112 l-0.213,-0.114 l-0.212,-0.117 l-0.21,-0.119 l-0.209,-0.121 l-0.207,-0.125 l-0.205,-0.126 l-0.204,-0.129 l-0.202,-0.131 l-0.2,-0.134 l-0.199,-0.136 l-0.197,-0.138 l-0.195,-0.14 l-0.193,-0.143 l-0.192,-0.145 l-0.19,-0.148 l-0.188,-0.149 l-0.186,-0.152 l-0.184,-0.154 l-0.183,-0.156 l-0.18,-0.158 l-0.179,-0.161 l-0.176,-0.162 l-0.175,-0.165 l-0.172,-0.166 l-0.171,-0.169 l-0.169,-0.171 l-0.166,-0.172 l-0.165,-0.175 l-0.162,-0.176 l-0.161,-0.179 l-0.158,-0.181 l-0.156,-0.182 l-0.154,-0.184 l-0.152,-0.186 l-0.149,-0.188 l-0.148,-0.19 l-0.145,-0.192 l-0.143,-0.193 l-0.14,-0.195 l-0.138,-0.197 l-0.136,-0.199 l-0.134,-0.2 l-0.131,-0.202 l-0.129,-0.204 l-0.127,-0.205 l-0.124,-0.207 l-0.121,-0.209 l-0.119,-0.21 l-0.117,-0.212 l-0.114,-0.213 l-0.112,-0.215 l-0.109,-0.216 l-0.107,-0.218 l-0.104,-0.22 l-0.101,-0.22 l-0.099,-0.223 l-0.096,-0.223 l-0.094,-0.225 l-0.091,-0.227 l-0.044,-0.113 l-0.044,-0.114 l-0.043,-0.115 l-0.042,-0.114 l-0.042,-0.115 l-0.041,-0.116 l-0.041,-0.115 l-0.039,-0.116 l-0.039,-0.117 l-0.038,-0.116 l-0.038,-0.117 l-0.037,-0.118 l-0.036,-0.117 l-0.035,-0.118 l-0.035,-0.118 l-0.034,-0.119 l-0.034,-0.119 l-0.032,-0.119 l-0.032,-0.119 l-0.031,-0.12 l-0.031,-0.12 l-0.03,-0.12 l-0.029,-0.12 l-0.028,-0.121 l-0.027,-0.121 l-0.027,-0.122 l-0.026,-0.121 l-0.026,-0.122 l-0.024,-0.123 l-0.024,-0.122 l-0.023,-0.123 l-0.023,-0.123 l-0.021,-0.123 l-0.021,-0.123 l-0.02,-0.124 l-0.02,-0.124 l-0.018,-0.124 l-0.018,-0.125 l-0.017,-0.125 l-0.016,-0.125 l-0.016,-0.125 l-0.015,-0.125 l-0.014,-0.126 l-0.013,-0.126 l-0.012,-0.126 l-0.012,-0.127 l-0.011,-0.126 l-0.01,-0.127 l-0.009,-0.127 l-0.008,-0.128 l-0.008,-0.127 l-0.007,-0.128 l-0.006,-0.128 l-0.005,-0.128 l-0.005,-0.128 l-0.003,-0.129 l-0.003,-0.129 l-0.002,-0.129 l-0.002,-0.129 l0,-0.129 l0,0 l0,-0.129 l0.002,-0.13 l0.002,-0.128 l0.003,-0.129 l0.003,-0.129 l0.005,-0.128 l0.005,-0.128 l0.006,-0.128 l0.007,-0.128 l0.008,-0.127 l0.008,-0.128 l0.009,-0.127 l0.01,-0.127 l0.011,-0.126 l0.012,-0.127 l0.012,-0.126 l0.013,-0.126 l0.014,-0.126 l0.015,-0.125 l0.016,-0.125 l0.016,-0.125 l0.017,-0.125 l0.018,-0.125 l0.018,-0.124 l0.02,-0.124 l0.02,-0.124 l0.021,-0.123 l0.021,-0.123 l0.023,-0.123 l0.023,-0.123 l0.024,-0.123 l0.024,-0.122 l0.026,-0.122 l0.026,-0.121 l0.027,-0.122 l0.027,-0.121 l0.028,-0.121 l0.029,-0.12 l0.03,-0.12 l0.031,-0.12 l0.031,-0.12 l0.032,-0.119 l0.032,-0.119 l0.034,-0.119 l0.034,-0.119 l0.035,-0.118 l0.035,-0.118 l0.036,-0.117 l0.037,-0.118 l0.038,-0.117 l0.038,-0.116 l0.039,-0.117 l0.039,-0.116 l0.041,-0.115 l0.041,-0.116 l0.042,-0.115 l0.042,-0.114 l0.043,-0.115 l0.044,-0.114 l0.044,-0.114 l0.091,-0.226 l0.094,-0.225 l0.096,-0.224 l0.099,-0.222 l0.101,-0.221 l0.104,-0.219 l0.107,-0.218 l0.109,-0.216 l0.112,-0.215 l0.114,-0.213 l0.117,-0.212 l0.119,-0.21 l0.121,-0.209 l0.124,-0.207 l0.127,-0.205 l0.129,-0.204 l0.131,-0.202 l0.134,-0.2 l0.136,-0.199 l0.138,-0.197 l0.14,-0.195 l0.143,-0.193 l0.145,-0.192 l0.148,-0.19 l0.149,-0.188 l0.152,-0.186 l0.154,-0.184 l0.156,-0.183 l0.158,-0.18 l0.161,-0.179 l0.162,-0.176 l0.165,-0.175 l0.166,-0.173 l0.169,-0.17 l0.171,-0.169 l0.172,-0.166 l0.175,-0.165 l0.176,-0.162 l0.179,-0.161 l0.18,-0.158 l0.183,-0.156 l0.184,-0.154 l0.186,-0.152 l0.188,-0.149 l0.19,-0.148 l0.192,-0.145 l0.193,-0.143 l0.195,-0.14 l0.197,-0.138 l0.199,-0.136 l0.2,-0.134 l0.202,-0.131 l0.204,-0.129 l0.205,-0.127 l0.207,-0.124 l0.209,-0.121 l0.21,-0.119 l0.212,-0.117 l0.213,-0.114 l0.215,-0.112 l0.216,-0.109 l0.218,-0.107 l0.219,-0.104 l0.221,-0.101 l0.222,-0.099 l0.224,-0.096 l0.225,-0.094 l0.227,-0.091 l0.113,-0.044 l0.114,-0.044 l0.115,-0.043 l0.114,-0.042 l0.115,-0.042 l0.116,-0.041 l0.115,-0.041 l0.116,-0.039 l0.117,-0.039 l0.116,-0.038 l0.117,-0.038 l0.118,-0.037 l0.117,-0.036 l0.118,-0.036 l0.118,-0.034 l0.119,-0.034 l0.119,-0.034 l0.119,-0.032 l0.119,-0.032 l0.12,-0.031 l0.12,-0.031 l0.12,-0.03 l0.12,-0.029 l0.121,-0.028 l0.121,-0.027 l0.122,-0.027 l0.121,-0.026 l0.122,-0.026 l0.122,-0.024 l0.123,-0.024 l0.123,-0.023 l0.123,-0.023 l0.123,-0.021 l0.123,-0.021 l0.124,-0.02 l0.124,-0.02 l0.124,-0.018 l0.125,-0.018 l0.125,-0.017 l0.125,-0.016 l0.125,-0.016 l0.125,-0.015 l0.126,-0.014 l0.126,-0.013 l0.126,-0.012 l0.127,-0.012 l0.126,-0.011 l0.127,-0.01 l0.127,-0.009 l0.128,-0.008 l0.127,-0.008 l0.128,-0.007 l0.128,-0.006 l0.128,-0.005 l0.128,-0.005 l0.129,-0.004 l0.129,-0.002 l0.129,-0.002 l0.129,-0.002 l0.129,0 l80,0 l0.129,0 M20.4405,14.4685 l-0.12,0 l-0.116,0.001 l-0.116,0.002 l-0.117,0.003 l-0.115,0.003 l-0.116,0.004 l-0.116,0.005 l-0.115,0.005 l-0.115,0.007 l-0.115,0.007 l-0.115,0.007 l-0.114,0.009 l-0.114,0.009 l-0.114,0.009 l-0.114,0.011 l-0.114,0.011 l-0.113,0.012 l-0.113,0.012 l-0.113,0.014 l-0.113,0.014 l-0.113,0.014 l-0.112,0.016 l-0.112,0.016 l-0.112,0.016 l-0.111,0.018 l-0.112,0.018 l-0.111,0.019 l-0.111,0.019 l-0.11,0.02 l-0.111,0.021 l-0.11,0.022 l-0.11,0.022 l-0.109,0.022 l-0.11,0.024 l-0.109,0.024 l-0.109,0.025 l-0.109,0.025 l-0.108,0.026 l-0.108,0.027 l-0.108,0.028 l-0.108,0.028 l-0.107,0.028 l-0.107,0.03 l-0.107,0.03 l-0.106,0.03 l-0.107,0.031 l-0.106,0.032 l-0.105,0.033 l-0.106,0.033 l-0.105,0.034 l-0.105,0.034 l-0.104,0.035 l-0.105,0.036 l-0.104,0.036 l-0.104,0.037 l-0.103,0.038 l-0.103,0.038 l-0.103,0.039 l-0.103,0.039 l-0.099,0.039 l-0.206,0.083 l-0.203,0.084 l-0.201,0.086 l-0.2,0.089 l-0.198,0.091 l-0.198,0.094 l-0.196,0.096 l-0.194,0.098 l-0.194,0.101 l-0.191,0.102 l-0.191,0.105 l-0.189,0.108 l-0.188,0.109 l-0.186,0.112 l-0.185,0.114 l-0.183,0.116 l-0.182,0.118 l-0.181,0.12 l-0.178,0.122 l-0.178,0.125 l-0.175,0.126 l-0.175,0.129 l-0.172,0.131 l-0.171,0.132 l-0.169,0.135 l-0.168,0.137 l-0.166,0.138 l-0.164,0.141 l-0.163,0.142 l-0.16,0.145 l-0.159,0.146 l-0.158,0.148 l-0.155,0.15 l-0.154,0.152 l-0.152,0.154 l-0.15,0.155 l-0.148,0.158 l-0.146,0.159 l-0.145,0.16 l-0.142,0.163 l-0.141,0.164 l-0.138,0.166 l-0.137,0.168 l-0.135,0.169 l-0.132,0.171 l-0.131,0.172 l-0.129,0.175 l-0.126,0.175 l-0.125,0.178 l-0.122,0.178 l-0.12,0.181 l-0.118,0.182 l-0.116,0.183 l-0.114,0.185 l-0.112,0.186 l-0.109,0.188 l-0.108,0.189 l-0.105,0.19 l-0.102,0.192 l-0.101,0.194 l-0.098,0.194 l-0.096,0.196 l-0.094,0.198 l-0.091,0.198 l-0.089,0.2 l-0.086,0.201 l-0.084,0.203 l-0.083,0.206 l-0.039,0.099 l-0.039,0.103 l-0.039,0.103 l-0.038,0.103 l-0.038,0.103 l-0.037,0.104 l-0.036,0.104 l-0.036,0.104 l-0.035,0.105 l-0.034,0.105 l-0.034,0.105 l-0.033,0.106 l-0.033,0.105 l-0.031,0.106 l-0.032,0.107 l-0.03,0.106 l-0.03,0.107 l-0.03,0.107 l-0.028,0.107 l-0.028,0.108 l-0.028,0.108 l-0.027,0.108 l-0.026,0.108 l-0.025,0.109 l-0.025,0.109 l-0.024,0.109 l-0.023,0.11 l-0.023,0.109 l-0.022,0.11 l-0.022,0.11 l-0.021,0.111 l-0.02,0.11 l-0.019,0.111 l-0.019,0.111 l-0.018,0.112 l-0.017,0.111 l-0.017,0.112 l-0.016,0.112 l-0.016,0.112 l-0.014,0.113 l-0.014,0.113 l-0.014,0.113 l-0.012,0.113 l-0.012,0.113 l-0.011,0.114 l-0.011,0.114 l-0.009,0.114 l-0.009,0.114 l-0.009,0.114 l-0.007,0.115 l-0.007,0.115 l-0.007,0.115 l-0.005,0.115 l-0.005,0.116 l-0.004,0.116 l-0.003,0.115 l-0.003,0.117 l-0.002,0.116 l-0.001,0.116 l0,0.117 l0,0.117 l0.001,0.116 l0.002,0.116 l0.003,0.117 l0.003,0.115 l0.004,0.116 l0.005,0.116 l0.005,0.115 l0.007,0.115 l0.007,0.115 l0.007,0.115 l0.009,0.114 l0.009,0.114 l0.009,0.114 l0.011,0.114 l0.011,0.114 l0.012,0.113 l0.012,0.113 l0.014,0.113 l0.014,0.113 l0.014,0.113 l0.016,0.112 l0.016,0.112 l0.017,0.112 l0.017,0.111 l0.018,0.112 l0.019,0.111 l0.019,0.111 l0.02,0.11 l0.021,0.111 l0.022,0.11 l0.022,0.11 l0.023,0.109 l0.023,0.11 l0.024,0.109 l0.025,0.109 l0.025,0.109 l0.026,0.108 l0.027,0.108 l0.028,0.108 l0.028,0.108 l0.028,0.107 l0.03,0.107 l0.03,0.107 l0.03,0.106 l0.032,0.107 l0.031,0.106 l0.033,0.105 l0.033,0.106 l0.034,0.105 l0.034,0.105 l0.035,0.104 l0.036,0.105 l0.036,0.104 l0.037,0.104 l0.038,0.103 l0.038,0.103 l0.039,0.103 l0.039,0.103 l0.039,0.099 l0.083,0.206 l0.084,0.203 l0.086,0.201 l0.089,0.2 l0.091,0.198 l0.094,0.198 l0.096,0.196 l0.098,0.194 l0.101,0.194 l0.102,0.191 l0.105,0.191 l0.108,0.189 l0.109,0.188 l0.112,0.186 l0.114,0.185 l0.116,0.183 l0.118,0.182 l0.12,0.181 l0.122,0.178 l0.125,0.178 l0.126,0.175 l0.129,0.174 l0.131,0.173 l0.132,0.171 l0.135,0.169 l0.137,0.168 l0.138,0.166 l0.141,0.164 l0.142,0.163 l0.145,0.16 l0.146,0.159 l0.148,0.158 l0.15,0.155 l0.152,0.154 l0.154,0.152 l0.155,0.15 l0.158,0.148 l0.159,0.146 l0.16,0.145 l0.163,0.142 l0.164,0.141 l0.166,0.138 l0.168,0.137 l0.169,0.135 l0.171,0.132 l0.172,0.131 l0.175,0.129 l0.175,0.126 l0.178,0.125 l0.178,0.122 l0.181,0.12 l0.182,0.118 l0.183,0.116 l0.185,0.114 l0.186,0.112 l0.188,0.109 l0.189,0.108 l0.191,0.105 l0.191,0.102 l0.194,0.101 l0.194,0.098 l0.196,0.096 l0.198,0.094 l0.198,0.091 l0.2,0.089 l0.201,0.086 l0.203,0.084 l0.206,0.083 l0.099,0.039 l0.103,0.039 l0.103,0.039 l0.103,0.038 l0.103,0.038 l0.104,0.037 l0.104,0.036 l0.105,0.036 l0.104,0.035 l0.105,0.034 l0.105,0.034 l0.106,0.033 l0.105,0.033 l0.106,0.031 l0.107,0.032 l0.106,0.03 l0.107,0.03 l0.107,0.03 l0.107,0.028 l0.108,0.028 l0.108,0.028 l0.108,0.027 l0.108,0.026 l0.109,0.025 l0.109,0.025 l0.109,0.024 l0.11,0.023 l0.109,0.023 l0.11,0.022 l0.11,0.022 l0.111,0.021 l0.11,0.02 l0.111,0.019 l0.111,0.019 l0.112,0.018 l0.111,0.017 l0.112,0.017 l0.112,0.016 l0.112,0.016 l0.113,0.014 l0.113,0.014 l0.113,0.013 l0.113,0.013 l0.113,0.012 l0.114,0.011 l0.114,0.011 l0.114,0.009 l0.114,0.009 l0.114,0.009 l0.115,0.007 l0.115,0.007 l0.115,0.006 l0.115,0.006 l0.116,0.005 l0.116,0.004 l0.115,0.003 l0.117,0.003 l0.116,0.001 l0.116,0.002 l0.12,0 l79.994,0 l0.12,0 l0.116,-0.002 l0.116,-0.001 l0.117,-0.003 l0.115,-0.003 l0.116,-0.004 l0.116,-0.005 l0.115,-0.006 l0.115,-0.006 l0.115,-0.007 l0.115,-0.007 l0.114,-0.009 l0.114,-0.009 l0.114,-0.009 l0.114,-0.011 l0.114,-0.011 l0.113,-0.012 l0.113,-0.013 l0.113,-0.013 l0.113,-0.014 l0.113,-0.014 l0.112,-0.016 l0.112,-0.016 l0.112,-0.017 l0.111,-0.017 l0.112,-0.018 l0.111,-0.019 l0.111,-0.019 l0.11,-0.02 l0.111,-0.021 l0.11,-0.022 l0.11,-0.022 l0.109,-0.023 l0.11,-0.023 l0.109,-0.024 l0.109,-0.025 l0.109,-0.025 l0.108,-0.026 l0.108,-0.027 l0.108,-0.028 l0.108,-0.028 l0.107,-0.028 l0.107,-0.03 l0.107,-0.03 l0.106,-0.03 l0.107,-0.032 l0.106,-0.031 l0.105,-0.033 l0.106,-0.033 l0.105,-0.034 l0.105,-0.034 l0.104,-0.035 l0.105,-0.036 l0.104,-0.036 l0.104,-0.037 l0.103,-0.038 l0.103,-0.038 l0.103,-0.039 l0.103,-0.039 l0.099,-0.039 l0.206,-0.083 l0.203,-0.084 l0.201,-0.086 l0.2,-0.089 l0.198,-0.091 l0.198,-0.094 l0.196,-0.096 l0.194,-0.098 l0.194,-0.101 l0.191,-0.102 l0.191,-0.105 l0.189,-0.108 l0.188,-0.109 l0.186,-0.112 l0.185,-0.114 l0.183,-0.116 l0.182,-0.118 l0.181,-0.12 l0.178,-0.122 l0.178,-0.125 l0.175,-0.126 l0.174,-0.129 l0.173,-0.131 l0.171,-0.132 l0.169,-0.135 l0.168,-0.137 l0.166,-0.138 l0.164,-0.141 l0.163,-0.142 l0.16,-0.145 l0.159,-0.146 l0.158,-0.148 l0.155,-0.15 l0.154,-0.152 l0.152,-0.154 l0.15,-0.155 l0.148,-0.158 l0.146,-0.159 l0.145,-0.16 l0.142,-0.163 l0.141,-0.164 l0.138,-0.166 l0.137,-0.168 l0.135,-0.169 l0.132,-0.171 l0.131,-0.173 l0.129,-0.174 l0.126,-0.175 l0.125,-0.178 l0.122,-0.178 l0.12,-0.181 l0.118,-0.182 l0.116,-0.183 l0.114,-0.185 l0.112,-0.186 l0.109,-0.188 l0.108,-0.189 l0.105,-0.191 l0.102,-0.192 l0.101,-0.193 l0.098,-0.194 l0.096,-0.196 l0.094,-0.198 l0.091,-0.198 l0.089,-0.2 l0.086,-0.201 l0.084,-0.203 l0.083,-0.206 l0.039,-0.099 l0.039,-0.103 l0.039,-0.103 l0.038,-0.103 l0.038,-0.103 l0.037,-0.104 l0.036,-0.104 l0.036,-0.105 l0.035,-0.104 l0.034,-0.105 l0.034,-0.105 l0.033,-0.106 l0.033,-0.105 l0.032,-0.106 l0.031,-0.107 l0.03,-0.106 l0.03,-0.107 l0.03,-0.107 l0.028,-0.108 l0.028,-0.107 l0.028,-0.108 l0.027,-0.108 l0.026,-0.108 l0.025,-0.109 l0.025,-0.109 l0.024,-0.109 l0.023,-0.11 l0.023,-0.109 l0.022,-0.11 l0.022,-0.11 l0.021,-0.111 l0.02,-0.11 l0.019,-0.111 l0.019,-0.111 l0.018,-0.112 l0.017,-0.111 l0.017,-0.112 l0.016,-0.112 l0.016,-0.112 l0.014,-0.113 l0.014,-0.113 l0.014,-0.113 l0.012,-0.113 l0.012,-0.113 l0.011,-0.114 l0.011,-0.114 l0.009,-0.114 l0.009,-0.114 l0.009,-0.114 l0.007,-0.115 l0.007,-0.115 l0.007,-0.115 l0.005,-0.115 l0.005,-0.116 l0.004,-0.116 l0.003,-0.115 l0.003,-0.117 l0.002,-0.116 l0.001,-0.116 l0,-0.117 l0,-0.117 l-0.001,-0.116 l-0.002,-0.117 l-0.003,-0.116 l-0.003,-0.115 l-0.004,-0.116 l-0.005,-0.116 l-0.005,-0.115 l-0.007,-0.115 l-0.007,-0.115 l-0.007,-0.115 l-0.009,-0.114 l-0.009,-0.114 l-0.009,-0.114 l-0.011,-0.114 l-0.011,-0.114 l-0.012,-0.113 l-0.012,-0.113 l-0.014,-0.113 l-0.014,-0.113 l-0.014,-0.113 l-0.016,-0.112 l-0.016,-0.112 l-0.017,-0.112 l-0.017,-0.111 l-0.018,-0.112 l-0.019,-0.111 l-0.019,-0.111 l-0.02,-0.11 l-0.021,-0.111 l-0.022,-0.11 l-0.022,-0.11 l-0.023,-0.109 l-0.023,-0.11 l-0.024,-0.109 l-0.025,-0.109 l-0.025,-0.109 l-0.026,-0.108 l-0.027,-0.108 l-0.028,-0.108 l-0.028,-0.108 l-0.028,-0.107 l-0.03,-0.107 l-0.03,-0.107 l-0.03,-0.106 l-0.031,-0.107 l-0.032,-0.106 l-0.033,-0.105 l-0.033,-0.106 l-0.034,-0.105 l-0.034,-0.105 l-0.035,-0.105 l-0.036,-0.104 l-0.036,-0.104 l-0.037,-0.104 l-0.038,-0.103 l-0.038,-0.103 l-0.039,-0.103 l-0.039,-0.103 l-0.039,-0.099 l-0.083,-0.206 l-0.084,-0.203 l-0.086,-0.201 l-0.089,-0.2 l-0.091,-0.198 l-0.094,-0.198 l-0.096,-0.196 l-0.098,-0.194 l-0.101,-0.194 l-0.102,-0.192 l-0.105,-0.19 l-0.108,-0.189 l-0.109,-0.188 l-0.112,-0.186 l-0.114,-0.185 l-0.116,-0.183 l-0.118,-0.182 l-0.12,-0.181 l-0.122,-0.178 l-0.125,-0.178 l-0.126,-0.175 l-0.129,-0.175 l-0.131,-0.172 l-0.132,-0.171 l-0.135,-0.169 l-0.137,-0.168 l-0.138,-0.166 l-0.141,-0.164 l-0.142,-0.163 l-0.145,-0.16 l-0.146,-0.159 l-0.148,-0.158 l-0.15,-0.155 l-0.152,-0.154 l-0.154,-0.152 l-0.155,-0.15 l-0.158,-0.148 l-0.159,-0.146 l-0.16,-0.145 l-0.163,-0.142 l-0.164,-0.141 l-0.166,-0.138 l-0.168,-0.137 l-0.169,-0.135 l-0.171,-0.132 l-0.173,-0.131 l-0.174,-0.129 l-0.175,-0.126 l-0.178,-0.125 l-0.178,-0.122 l-0.181,-0.12 l-0.182,-0.118 l-0.183,-0.116 l-0.185,-0.114 l-0.186,-0.112 l-0.188,-0.109 l-0.189,-0.108 l-0.191,-0.105 l-0.191,-0.102 l-0.194,-0.101 l-0.194,-0.098 l-0.196,-0.096 l-0.198,-0.094 l-0.198,-0.091 l-0.2,-0.089 l-0.201,-0.086 l-0.203,-0.084 l-0.206,-0.083 l-0.099,-0.039 l-0.103,-0.04 l-0.103,-0.038 l-0.103,-0.038 l-0.103,-0.038 l-0.104,-0.037 l-0.104,-0.036 l-0.105,-0.036 l-0.104,-0.035 l-0.105,-0.034 l-0.105,-0.034 l-0.106,-0.033 l-0.105,-0.033 l-0.106,-0.032 l-0.107,-0.031 l-0.106,-0.03 l-0.107,-0.03 l-0.107,-0.03 l-0.107,-0.028 l-0.108,-0.028 l-0.108,-0.028 l-0.108,-0.027 l-0.108,-0.026 l-0.109,-0.025 l-0.109,-0.025 l-0.109,-0.024 l-0.11,-0.024 l-0.109,-0.022 l-0.11,-0.022 l-0.11,-0.022 l-0.111,-0.021 l-0.11,-0.02 l-0.111,-0.019 l-0.111,-0.019 l-0.112,-0.018 l-0.111,-0.018 l-0.112,-0.016 l-0.112,-0.016 l-0.112,-0.016 l-0.113,-0.014 l-0.113,-0.014 l-0.113,-0.014 l-0.113,-0.012 l-0.113,-0.012 l-0.114,-0.011 l-0.114,-0.011 l-0.114,-0.009 l-0.114,-0.009 l-0.114,-0.009 l-0.115,-0.007 l-0.115,-0.007 l-0.115,-0.007 l-0.115,-0.005 l-0.116,-0.005 l-0.116,-0.004 l-0.115,-0.003 l-0.117,-0.003 l-0.116,-0.002 l-0.116,-0.001 l-0.12,0 l-79.994,0  Z " style="fill:#73a4f0; "></path></g><g id="textToPathGroup"><path stroke="none" id="textToPath-0" stroke-width="1" d="M32.650002,23.525 C32.349998,21.125 30.549999,19.825001 28.150002,19.825001 C25.549999,19.825001 23.450001,21.725 23.450001,25.025 C23.450001,28.325001 25.450001,30.225 28.150002,30.225 C30.849998,30.225 32.349998,28.525 32.650002,26.625 L30.450001,26.625 C30.25,27.725 29.349998,28.325001 28.25,28.325001 C26.650002,28.325001 25.650002,27.225 25.650002,25.025 C25.650002,22.924999 26.650002,21.725 28.25,21.725 C29.450001,21.725 30.25,22.424999 30.450001,23.525  Z M37.549999,30.225 C39.849998,30.225 41.349998,28.725 41.349998,26.325001 C41.349998,23.924999 39.849998,22.424999 37.549999,22.424999 C35.25,22.424999 33.849998,23.924999 33.849998,26.325001 C33.849998,28.725 35.25,30.225 37.549999,30.225  Z M37.549999,28.625 C36.549999,28.625 35.950001,27.625 35.950001,26.325001 C35.950001,25.025 36.549999,24.025 37.549999,24.025 C38.650002,24.025 39.150002,25.025 39.150002,26.325001 C39.150002,27.625 38.650002,28.625 37.549999,28.625  Z M44.849998,25.725 C44.849998,24.725 45.450001,24.125 46.25,24.125 C47.150002,24.125 47.650002,24.725 47.650002,25.625 L47.650002,30.125 L49.75,30.125 L49.75,25.225 C49.75,23.525 48.75,22.424999 47.150002,22.424999 C45.950001,22.424999 45.150002,22.924999 44.849998,23.825001 L44.75,23.825001 L44.75,22.525 L42.75,22.525 L42.75,30.125 L44.849998,30.125  Z M55.449997,22.525 L54.050003,22.525 L54.050003,20.625 L51.950001,20.625 L51.950001,22.525 L50.849998,22.525 L50.849998,24.125 L51.950001,24.125 L51.950001,28.025 C51.950001,29.525 52.950001,30.325001 54.449997,30.225 C55.050003,30.225 55.449997,30.125 55.650002,30.025 L55.25,28.424999 C55.150002,28.424999 54.949997,28.525 54.75,28.525 C54.349998,28.525 54.050003,28.325001 54.050003,27.825001 L54.050003,24.125 L55.449997,24.125  Z M56.849998,30.125 L58.949997,30.125 L58.949997,25.825001 C58.949997,24.825001 59.650002,24.225 60.550003,24.225 C60.849998,24.225 61.25,24.225 61.449997,24.325001 L61.449997,22.424999 C61.349998,22.424999 61.050003,22.424999 60.849998,22.424999 C59.949997,22.424999 59.25,22.924999 58.949997,23.825001 L58.949997,23.825001 L58.949997,22.525 L56.849998,22.525  Z M62.550003,30.125 L64.75,30.125 L64.75,22.525 L62.550003,22.525  Z M63.650002,21.525 C64.25,21.525 64.75,21.025 64.75,20.424999 C64.75,19.825001 64.25,19.325001 63.650002,19.325001 C63.050003,19.325001 62.550003,19.825001 62.550003,20.424999 C62.550003,21.025 63.050003,21.525 63.650002,21.525  Z M66.449997,30.125 L68.550003,30.125 L68.550003,28.924999 L68.650002,28.924999 C68.949997,29.525 69.550003,30.225 70.75,30.225 C72.550003,30.225 73.849998,28.825001 73.849998,26.325001 C73.849998,23.725 72.449997,22.424999 70.75,22.424999 C69.550003,22.424999 68.849998,23.125 68.650002,23.725 L68.550003,23.725 L68.550003,19.924999 L66.449997,19.924999  Z M68.550003,26.325001 C68.550003,24.924999 69.050003,24.025 70.150002,24.025 C71.150002,24.025 71.75,25.025 71.75,26.325001 C71.75,27.625 71.150002,28.525 70.150002,28.525 C69.050003,28.525 68.550003,27.625 68.550003,26.325001  Z M80.150002,26.825001 C80.150002,27.924999 79.449997,28.424999 78.75,28.424999 C77.949997,28.424999 77.449997,27.825001 77.449997,26.924999 L77.449997,22.525 L75.25,22.525 L75.25,27.325001 C75.25,29.125 76.349998,30.225 77.849998,30.225 C79.050003,30.225 79.849998,29.625 80.150002,28.725 L80.25,28.725 L80.25,30.125 L82.25,30.125 L82.25,22.525 L80.150002,22.525  Z M88.050003,22.525 L86.650002,22.525 L86.650002,20.625 L84.449997,20.625 L84.449997,22.525 L83.449997,22.525 L83.449997,24.125 L84.449997,24.125 L84.449997,28.025 C84.449997,29.525 85.550003,30.325001 87.050003,30.225 C87.550003,30.225 87.949997,30.125 88.150002,30.025 L87.849998,28.424999 C87.75,28.424999 87.550003,28.525 87.349998,28.525 C86.949997,28.525 86.650002,28.325001 86.650002,27.825001 L86.650002,24.125 L88.050003,24.125  Z M92.949997,30.225 C94.75,30.225 96.050003,29.325001 96.349998,27.924999 L94.449997,27.825001 C94.150002,28.424999 93.650002,28.725 92.949997,28.725 C91.849998,28.725 91.25,28.025 91.25,26.825001 L91.25,26.825001 L96.449997,26.825001 L96.449997,26.225 C96.449997,23.625 94.849998,22.424999 92.849998,22.424999 C90.550003,22.424999 89.150002,24.025 89.150002,26.325001 C89.150002,28.725 90.550003,30.225 92.949997,30.225  Z M91.25,25.525 C91.25,24.625 91.949997,23.924999 92.849998,23.924999 C93.75,23.924999 94.449997,24.625 94.449997,25.525  Z " fill="#73a4f0" transform=""></path></g><g id="textToPathGroup"></g><g id="textToPathGroup"></g><g id="textToPathGroup"></g><g id="textToPathGroup"></g><g id="textToPathGroup"><path stroke="none" stroke-width="1" id="textToPath-0" d="M19.75,44.224998 C21.15,44.224998 22.15,43.125 22.15,41.424999 C22.15,39.724998 21.15,38.625 19.75,38.625 C18.25,38.625 17.35,39.724998 17.35,41.424999 C17.35,43.125 18.25,44.224998 19.75,44.224998  Z M19.75,43.625 C18.549999,43.625 17.950001,42.625 17.950001,41.424999 C17.950001,40.224998 18.549999,39.125 19.75,39.125 C20.85,39.125 21.450001,40.224998 21.450001,41.424999 C21.450001,42.625 20.85,43.625 19.75,43.625  Z M24.15,40.724998 C24.15,39.724998 24.75,39.224998 25.65,39.224998 C26.450001,39.224998 26.950001,39.724998 26.950001,40.625 L26.950001,44.125 L27.650002,44.125 L27.650002,40.625 C27.650002,39.325001 26.849998,38.625 25.75,38.625 C24.950001,38.625 24.450001,38.924999 24.15,39.525002 L24.15,39.525002 L24.15,38.625 L23.450001,38.625 L23.450001,44.125 L24.15,44.125  Z M38.150002,40.525002 C38.150002,38.224998 36.849998,36.724998 35.049999,36.724998 C33.25,36.724998 31.950001,38.224998 31.950001,40.525002 C31.950001,42.724998 33.25,44.224998 35.049999,44.224998 C36.849998,44.224998 38.150002,42.724998 38.150002,40.525002  Z M37.549999,40.525002 C37.549999,42.424999 36.450001,43.625 35.049999,43.625 C33.650002,43.625 32.549999,42.424999 32.549999,40.525002 C32.549999,38.525002 33.650002,37.424999 35.049999,37.424999 C36.450001,37.424999 37.549999,38.525002 37.549999,40.525002  Z M39.650002,46.125 L40.25,46.125 L40.25,43.125 L40.349998,43.125 C40.549999,43.625 41.049999,44.224998 42.049999,44.224998 C43.349998,44.224998 44.25,43.125 44.25,41.424999 C44.25,39.724998 43.349998,38.625 42.049999,38.625 C41.049999,38.625 40.549999,39.224998 40.349998,39.724998 L40.25,39.724998 L40.25,38.625 L39.650002,38.625  Z M40.25,41.424999 C40.25,40.125 40.849998,39.125 41.950001,39.125 C43.049999,39.125 43.650002,40.125 43.650002,41.424999 C43.650002,42.625 43.049999,43.625 41.950001,43.625 C40.849998,43.625 40.25,42.724998 40.25,41.424999  Z M47.849998,44.224998 C48.950001,44.224998 49.650002,43.625 49.950001,42.924999 L49.349998,42.724998 C49.150002,43.224998 48.650002,43.625 47.849998,43.625 C46.75,43.625 46.049999,42.825001 46.049999,41.625 L50.049999,41.625 L50.049999,41.224998 C50.049999,39.424999 48.950001,38.625 47.75,38.625 C46.349998,38.625 45.349998,39.825001 45.349998,41.424999 C45.349998,43.125 46.349998,44.224998 47.849998,44.224998  Z M46.049999,41.025002 C46.049999,40.025002 46.75,39.125 47.75,39.125 C48.75,39.125 49.450001,40.025002 49.450001,41.025002  Z M52.049999,40.724998 C52.049999,39.724998 52.75,39.224998 53.549999,39.224998 C54.450001,39.224998 54.950001,39.724998 54.950001,40.625 L54.950001,44.125 L55.549999,44.125 L55.549999,40.625 C55.549999,39.325001 54.849998,38.625 53.75,38.625 C52.950001,38.625 52.349998,38.924999 52.150002,39.525002 L52.049999,39.525002 L52.049999,38.625 L51.450001,38.625 L51.450001,44.125 L52.049999,44.125  Z M65.949997,39.125 C65.650002,37.825001 64.550003,36.724998 63.050003,36.724998 C61.150002,36.724998 59.849998,38.224998 59.849998,40.525002 C59.849998,42.724998 61.150002,44.224998 63.050003,44.224998 C64.550003,44.224998 65.650002,43.224998 65.949997,41.825001 L65.25,41.825001 C65.050003,42.825001 64.150002,43.625 63.050003,43.625 C61.650002,43.625 60.550003,42.525002 60.550003,40.525002 C60.550003,38.525002 61.650002,37.424999 63.050003,37.424999 C64.150002,37.424999 65.050003,38.125 65.25,39.125  Z M69.449997,44.224998 C70.849998,44.224998 71.849998,43.125 71.849998,41.424999 C71.849998,39.724998 70.849998,38.625 69.449997,38.625 C68.050003,38.625 67.050003,39.724998 67.050003,41.424999 C67.050003,43.125 68.050003,44.224998 69.449997,44.224998  Z M69.449997,43.625 C68.349998,43.625 67.650002,42.625 67.650002,41.424999 C67.650002,40.224998 68.349998,39.125 69.449997,39.125 C70.550003,39.125 71.25,40.224998 71.25,41.424999 C71.25,42.625 70.550003,43.625 69.449997,43.625  Z M73.849998,36.825001 L73.25,36.825001 L73.25,44.125 L73.849998,44.125  Z M76.150002,36.825001 L75.550003,36.825001 L75.550003,44.125 L76.150002,44.125  Z M80.050003,44.224998 C81.150002,44.224998 81.849998,43.625 82.150002,42.924999 L81.550003,42.724998 C81.349998,43.224998 80.849998,43.625 80.050003,43.625 C78.949997,43.625 78.25,42.825001 78.150002,41.625 L82.25,41.625 L82.25,41.224998 C82.25,39.424999 81.150002,38.625 79.949997,38.625 C78.550003,38.625 77.550003,39.825001 77.550003,41.424999 C77.550003,43.125 78.550003,44.224998 80.050003,44.224998  Z M78.25,41.025002 C78.25,40.025002 78.949997,39.125 79.949997,39.125 C80.949997,39.125 81.650002,40.025002 81.650002,41.025002  Z M85.75,44.224998 C86.949997,44.224998 87.75,43.525002 87.849998,42.525002 L87.25,42.525002 C87.050003,43.224998 86.550003,43.625 85.75,43.625 C84.75,43.625 84.050003,42.724998 84.050003,41.424999 C84.050003,40.125 84.75,39.125 85.75,39.125 C86.550003,39.125 87.050003,39.625 87.25,40.325001 L87.849998,40.325001 C87.75,39.325001 86.849998,38.625 85.75,38.625 C84.349998,38.625 83.349998,39.825001 83.349998,41.424999 C83.349998,43.025002 84.349998,44.224998 85.75,44.224998  Z M91.349998,38.625 L90.25,38.625 L90.25,37.325001 L89.550003,37.325001 L89.550003,38.625 L88.75,38.625 L88.75,39.224998 L89.550003,39.224998 L89.550003,42.825001 C89.550003,43.724998 90.25,44.224998 90.949997,44.224998 C91.25,44.224998 91.449997,44.125 91.550003,44.125 L91.449997,43.525002 C91.349998,43.525002 91.150002,43.625 91.050003,43.625 C90.650002,43.625 90.25,43.424999 90.25,42.724998 L90.25,39.224998 L91.349998,39.224998  Z M92.849998,44.125 L93.449997,44.125 L93.449997,38.625 L92.849998,38.625  Z M93.150002,37.724998 C93.349998,37.724998 93.650002,37.525002 93.650002,37.325001 C93.650002,37.025002 93.349998,36.825001 93.150002,36.825001 C92.849998,36.825001 92.650002,37.025002 92.650002,37.325001 C92.650002,37.525002 92.849998,37.724998 93.150002,37.724998  Z M99.349998,38.625 L98.650002,38.625 L97.050003,43.325001 L96.949997,43.325001 L95.349998,38.625 L94.650002,38.625 L96.650002,44.125 L97.349998,44.125  Z M102.75,44.224998 C103.849998,44.224998 104.650002,43.625 104.849998,42.924999 L104.25,42.724998 C104.050003,43.224998 103.550003,43.625 102.75,43.625 C101.650002,43.625 100.949997,42.825001 100.949997,41.625 L104.949997,41.625 L104.949997,41.224998 C104.949997,39.424999 103.849998,38.625 102.650002,38.625 C101.25,38.625 100.25,39.825001 100.25,41.424999 C100.25,43.125 101.25,44.224998 102.75,44.224998  Z M100.949997,41.025002 C100.949997,40.025002 101.650002,39.125 102.650002,39.125 C103.650002,39.125 104.349998,40.025002 104.349998,41.025002  Z " fill="#5e6b7b" transform=""></path></g></svg>