<?xml version="1.0" standalone="yes"?>
<!DOCTYPE svg PUBLIC "-//W3C//DTD SVG 1.1//EN" "http://www.w3.org/Graphics/SVG/1.1/DTD/svg11.dtd">
<svg xmlns="http://www.w3.org/2000/svg" xmlns:xlink="http://www.w3.org/1999/xlink" width="128" height="64" viewBox="0 0 128 64" version="1.1" xml:space="preserve" style="fill-rule:evenodd;clip-rule:evenodd;stroke-linejoin:round;stroke-miterlimit:1.41421;zoom: 4;"><g><path d="M120.1875,20.343498 c0,-11.046 -8.954,-20 -20,-20 c-22.196,0 -57.804,0 -80,0 c-11.046,0 -20,8.954 -20,20 c0,0 0,0 0,0 c0,11.046 8.954,20 20,20 c22.196,0 57.804,0 80,0 c11.046,0 20,-8.954 20,-20 c0,0 0,0 0,0  Z " style="fill:#fff;"></path><path d="M100.191498,0.0935 l0.129,0.002 l0.129,0.002 l0.129,0.002 l0.129,0.004 l0.128,0.005 l0.128,0.005 l0.128,0.006 l0.128,0.007 l0.127,0.008 l0.128,0.008 l0.127,0.009 l0.127,0.01 l0.126,0.011 l0.127,0.012 l0.126,0.012 l0.126,0.013 l0.126,0.014 l0.125,0.015 l0.125,0.016 l0.125,0.016 l0.125,0.017 l0.125,0.018 l0.124,0.018 l0.124,0.02 l0.124,0.02 l0.123,0.021 l0.123,0.021 l0.123,0.023 l0.123,0.023 l0.123,0.024 l0.122,0.024 l0.122,0.026 l0.121,0.026 l0.122,0.027 l0.121,0.027 l0.121,0.028 l0.12,0.029 l0.12,0.03 l0.12,0.031 l0.12,0.031 l0.119,0.032 l0.119,0.032 l0.119,0.034 l0.119,0.034 l0.118,0.034 l0.118,0.036 l0.117,0.036 l0.118,0.037 l0.117,0.038 l0.116,0.038 l0.117,0.039 l0.116,0.039 l0.115,0.041 l0.116,0.041 l0.115,0.042 l0.114,0.042 l0.115,0.043 l0.114,0.044 l0.113,0.044 l0.227,0.091 l0.225,0.094 l0.224,0.096 l0.222,0.099 l0.221,0.101 l0.219,0.104 l0.218,0.107 l0.216,0.109 l0.215,0.112 l0.213,0.114 l0.212,0.117 l0.21,0.119 l0.209,0.121 l0.207,0.124 l0.205,0.127 l0.204,0.129 l0.202,0.131 l0.2,0.134 l0.199,0.136 l0.197,0.138 l0.195,0.14 l0.193,0.143 l0.192,0.145 l0.19,0.148 l0.188,0.149 l0.186,0.152 l0.184,0.154 l0.183,0.156 l0.18,0.158 l0.179,0.161 l0.176,0.162 l0.175,0.165 l0.172,0.166 l0.171,0.169 l0.169,0.17 l0.166,0.173 l0.165,0.175 l0.162,0.176 l0.161,0.179 l0.158,0.18 l0.156,0.183 l0.154,0.184 l0.152,0.186 l0.149,0.188 l0.148,0.19 l0.145,0.192 l0.143,0.193 l0.14,0.195 l0.138,0.197 l0.136,0.199 l0.134,0.2 l0.131,0.202 l0.129,0.204 l0.127,0.205 l0.124,0.207 l0.121,0.209 l0.119,0.21 l0.117,0.212 l0.114,0.213 l0.112,0.215 l0.109,0.216 l0.107,0.218 l0.104,0.219 l0.101,0.221 l0.099,0.222 l0.096,0.224 l0.094,0.225 l0.091,0.226 l0.044,0.114 l0.044,0.114 l0.043,0.115 l0.042,0.114 l0.042,0.115 l0.041,0.116 l0.041,0.115 l0.039,0.116 l0.039,0.117 l0.038,0.116 l0.038,0.117 l0.037,0.118 l0.036,0.117 l0.035,0.118 l0.035,0.118 l0.034,0.119 l0.034,0.119 l0.032,0.119 l0.032,0.119 l0.031,0.12 l0.031,0.12 l0.03,0.12 l0.029,0.12 l0.028,0.121 l0.027,0.121 l0.027,0.122 l0.026,0.121 l0.026,0.122 l0.024,0.122 l0.024,0.123 l0.023,0.123 l0.023,0.123 l0.021,0.123 l0.021,0.123 l0.02,0.124 l0.02,0.124 l0.018,0.124 l0.018,0.125 l0.017,0.125 l0.016,0.125 l0.016,0.125 l0.015,0.125 l0.014,0.126 l0.013,0.126 l0.012,0.126 l0.012,0.127 l0.011,0.126 l0.01,0.127 l0.009,0.127 l0.008,0.128 l0.008,0.127 l0.007,0.128 l0.006,0.128 l0.005,0.128 l0.005,0.128 l0.003,0.129 l0.003,0.129 l0.002,0.128 l0.002,0.13 l0,0.129 l0,0.129 l-0.002,0.129 l-0.002,0.129 l-0.003,0.129 l-0.003,0.129 l-0.005,0.128 l-0.005,0.128 l-0.006,0.128 l-0.007,0.128 l-0.008,0.127 l-0.008,0.128 l-0.009,0.127 l-0.01,0.127 l-0.011,0.126 l-0.012,0.127 l-0.012,0.126 l-0.013,0.126 l-0.014,0.126 l-0.015,0.125 l-0.016,0.125 l-0.016,0.125 l-0.017,0.125 l-0.018,0.125 l-0.018,0.124 l-0.02,0.124 l-0.02,0.124 l-0.021,0.123 l-0.021,0.123 l-0.023,0.123 l-0.023,0.123 l-0.024,0.122 l-0.024,0.123 l-0.026,0.122 l-0.026,0.121 l-0.027,0.122 l-0.027,0.121 l-0.028,0.121 l-0.029,0.12 l-0.03,0.12 l-0.031,0.12 l-0.031,0.12 l-0.032,0.119 l-0.032,0.119 l-0.034,0.119 l-0.034,0.119 l-0.035,0.118 l-0.035,0.118 l-0.036,0.117 l-0.037,0.118 l-0.038,0.117 l-0.038,0.116 l-0.039,0.117 l-0.039,0.116 l-0.041,0.115 l-0.041,0.116 l-0.042,0.115 l-0.042,0.114 l-0.043,0.115 l-0.044,0.114 l-0.044,0.113 l-0.091,0.227 l-0.094,0.225 l-0.096,0.223 l-0.099,0.223 l-0.101,0.22 l-0.104,0.22 l-0.107,0.218 l-0.109,0.216 l-0.112,0.215 l-0.114,0.213 l-0.117,0.212 l-0.119,0.21 l-0.121,0.209 l-0.124,0.207 l-0.127,0.205 l-0.129,0.204 l-0.131,0.202 l-0.134,0.2 l-0.136,0.199 l-0.138,0.197 l-0.14,0.195 l-0.143,0.193 l-0.145,0.192 l-0.148,0.19 l-0.149,0.188 l-0.152,0.186 l-0.154,0.184 l-0.156,0.182 l-0.158,0.181 l-0.161,0.179 l-0.162,0.176 l-0.165,0.175 l-0.166,0.172 l-0.169,0.171 l-0.171,0.169 l-0.172,0.166 l-0.175,0.165 l-0.176,0.162 l-0.179,0.161 l-0.18,0.158 l-0.183,0.156 l-0.184,0.154 l-0.186,0.152 l-0.188,0.149 l-0.19,0.148 l-0.192,0.145 l-0.193,0.143 l-0.195,0.14 l-0.197,0.138 l-0.199,0.136 l-0.2,0.134 l-0.202,0.131 l-0.204,0.129 l-0.205,0.126 l-0.207,0.125 l-0.209,0.121 l-0.21,0.119 l-0.212,0.117 l-0.213,0.114 l-0.215,0.112 l-0.216,0.109 l-0.218,0.107 l-0.219,0.104 l-0.221,0.101 l-0.222,0.099 l-0.224,0.096 l-0.225,0.094 l-0.227,0.091 l-0.113,0.044 l-0.114,0.044 l-0.115,0.043 l-0.114,0.042 l-0.115,0.042 l-0.116,0.041 l-0.115,0.04 l-0.116,0.04 l-0.117,0.039 l-0.116,0.038 l-0.117,0.038 l-0.118,0.037 l-0.117,0.036 l-0.118,0.035 l-0.118,0.035 l-0.119,0.034 l-0.119,0.034 l-0.119,0.032 l-0.119,0.032 l-0.12,0.031 l-0.12,0.031 l-0.12,0.03 l-0.12,0.029 l-0.121,0.028 l-0.121,0.027 l-0.122,0.027 l-0.121,0.026 l-0.122,0.026 l-0.122,0.024 l-0.123,0.024 l-0.123,0.023 l-0.123,0.023 l-0.123,0.021 l-0.123,0.021 l-0.124,0.02 l-0.124,0.02 l-0.124,0.018 l-0.125,0.018 l-0.125,0.017 l-0.125,0.016 l-0.125,0.016 l-0.125,0.015 l-0.126,0.014 l-0.126,0.013 l-0.126,0.012 l-0.127,0.012 l-0.126,0.011 l-0.127,0.01 l-0.127,0.009 l-0.128,0.008 l-0.127,0.008 l-0.128,0.007 l-0.128,0.006 l-0.128,0.005 l-0.128,0.005 l-0.129,0.003 l-0.129,0.003 l-0.129,0.002 l-0.129,0.002 l-0.129,0 l-80,0 l-0.129,0 l-0.129,-0.002 l-0.129,-0.002 l-0.129,-0.003 l-0.129,-0.003 l-0.128,-0.005 l-0.128,-0.005 l-0.128,-0.006 l-0.128,-0.007 l-0.127,-0.008 l-0.128,-0.008 l-0.127,-0.009 l-0.127,-0.01 l-0.126,-0.011 l-0.127,-0.012 l-0.126,-0.012 l-0.126,-0.013 l-0.126,-0.014 l-0.125,-0.015 l-0.125,-0.016 l-0.125,-0.016 l-0.125,-0.017 l-0.125,-0.018 l-0.124,-0.018 l-0.124,-0.02 l-0.124,-0.02 l-0.123,-0.021 l-0.123,-0.021 l-0.123,-0.023 l-0.123,-0.023 l-0.123,-0.024 l-0.122,-0.024 l-0.122,-0.026 l-0.121,-0.026 l-0.122,-0.027 l-0.121,-0.027 l-0.121,-0.028 l-0.12,-0.029 l-0.12,-0.03 l-0.12,-0.031 l-0.12,-0.031 l-0.119,-0.032 l-0.119,-0.032 l-0.119,-0.034 l-0.119,-0.034 l-0.118,-0.035 l-0.118,-0.035 l-0.117,-0.036 l-0.118,-0.037 l-0.117,-0.038 l-0.116,-0.038 l-0.117,-0.039 l-0.116,-0.04 l-0.115,-0.04 l-0.116,-0.041 l-0.115,-0.042 l-0.114,-0.042 l-0.115,-0.043 l-0.114,-0.044 l-0.113,-0.044 l-0.227,-0.091 l-0.225,-0.094 l-0.224,-0.096 l-0.222,-0.099 l-0.221,-0.101 l-0.219,-0.104 l-0.218,-0.107 l-0.216,-0.109 l-0.215,-0.112 l-0.213,-0.114 l-0.212,-0.117 l-0.21,-0.119 l-0.209,-0.121 l-0.207,-0.125 l-0.205,-0.126 l-0.204,-0.129 l-0.202,-0.131 l-0.2,-0.134 l-0.199,-0.136 l-0.197,-0.138 l-0.195,-0.14 l-0.193,-0.143 l-0.192,-0.145 l-0.19,-0.148 l-0.188,-0.149 l-0.186,-0.152 l-0.184,-0.154 l-0.183,-0.156 l-0.18,-0.158 l-0.179,-0.161 l-0.176,-0.162 l-0.175,-0.165 l-0.172,-0.166 l-0.171,-0.169 l-0.169,-0.171 l-0.166,-0.172 l-0.165,-0.175 l-0.162,-0.176 l-0.161,-0.179 l-0.158,-0.181 l-0.156,-0.182 l-0.154,-0.184 l-0.152,-0.186 l-0.149,-0.188 l-0.148,-0.19 l-0.145,-0.192 l-0.143,-0.193 l-0.14,-0.195 l-0.138,-0.197 l-0.136,-0.199 l-0.134,-0.2 l-0.131,-0.202 l-0.129,-0.204 l-0.127,-0.205 l-0.124,-0.207 l-0.121,-0.209 l-0.119,-0.21 l-0.117,-0.212 l-0.114,-0.213 l-0.112,-0.215 l-0.109,-0.216 l-0.107,-0.218 l-0.104,-0.22 l-0.101,-0.22 l-0.099,-0.223 l-0.096,-0.223 l-0.094,-0.225 l-0.091,-0.227 l-0.044,-0.113 l-0.044,-0.114 l-0.043,-0.115 l-0.042,-0.114 l-0.042,-0.115 l-0.041,-0.116 l-0.041,-0.115 l-0.039,-0.116 l-0.039,-0.117 l-0.038,-0.116 l-0.038,-0.117 l-0.037,-0.118 l-0.036,-0.117 l-0.035,-0.118 l-0.035,-0.118 l-0.034,-0.119 l-0.034,-0.119 l-0.032,-0.119 l-0.032,-0.119 l-0.031,-0.12 l-0.031,-0.12 l-0.03,-0.12 l-0.029,-0.12 l-0.028,-0.121 l-0.027,-0.121 l-0.027,-0.122 l-0.026,-0.121 l-0.026,-0.122 l-0.024,-0.123 l-0.024,-0.122 l-0.023,-0.123 l-0.023,-0.123 l-0.021,-0.123 l-0.021,-0.123 l-0.02,-0.124 l-0.02,-0.124 l-0.018,-0.124 l-0.018,-0.125 l-0.017,-0.125 l-0.016,-0.125 l-0.016,-0.125 l-0.015,-0.125 l-0.014,-0.126 l-0.013,-0.126 l-0.012,-0.126 l-0.012,-0.127 l-0.011,-0.126 l-0.01,-0.127 l-0.009,-0.127 l-0.008,-0.128 l-0.008,-0.127 l-0.007,-0.128 l-0.006,-0.128 l-0.005,-0.128 l-0.005,-0.128 l-0.003,-0.129 l-0.003,-0.129 l-0.002,-0.129 l-0.002,-0.129 l0,-0.129 l0,0 l0,-0.129 l0.002,-0.13 l0.002,-0.128 l0.003,-0.129 l0.003,-0.129 l0.005,-0.128 l0.005,-0.128 l0.006,-0.128 l0.007,-0.128 l0.008,-0.127 l0.008,-0.128 l0.009,-0.127 l0.01,-0.127 l0.011,-0.126 l0.012,-0.127 l0.012,-0.126 l0.013,-0.126 l0.014,-0.126 l0.015,-0.125 l0.016,-0.125 l0.016,-0.125 l0.017,-0.125 l0.018,-0.125 l0.018,-0.124 l0.02,-0.124 l0.02,-0.124 l0.021,-0.123 l0.021,-0.123 l0.023,-0.123 l0.023,-0.123 l0.024,-0.123 l0.024,-0.122 l0.026,-0.122 l0.026,-0.121 l0.027,-0.122 l0.027,-0.121 l0.028,-0.121 l0.029,-0.12 l0.03,-0.12 l0.031,-0.12 l0.031,-0.12 l0.032,-0.119 l0.032,-0.119 l0.034,-0.119 l0.034,-0.119 l0.035,-0.118 l0.035,-0.118 l0.036,-0.117 l0.037,-0.118 l0.038,-0.117 l0.038,-0.116 l0.039,-0.117 l0.039,-0.116 l0.041,-0.115 l0.041,-0.116 l0.042,-0.115 l0.042,-0.114 l0.043,-0.115 l0.044,-0.114 l0.044,-0.114 l0.091,-0.226 l0.094,-0.225 l0.096,-0.224 l0.099,-0.222 l0.101,-0.221 l0.104,-0.219 l0.107,-0.218 l0.109,-0.216 l0.112,-0.215 l0.114,-0.213 l0.117,-0.212 l0.119,-0.21 l0.121,-0.209 l0.124,-0.207 l0.127,-0.205 l0.129,-0.204 l0.131,-0.202 l0.134,-0.2 l0.136,-0.199 l0.138,-0.197 l0.14,-0.195 l0.143,-0.193 l0.145,-0.192 l0.148,-0.19 l0.149,-0.188 l0.152,-0.186 l0.154,-0.184 l0.156,-0.183 l0.158,-0.18 l0.161,-0.179 l0.162,-0.176 l0.165,-0.175 l0.166,-0.173 l0.169,-0.17 l0.171,-0.169 l0.172,-0.166 l0.175,-0.165 l0.176,-0.162 l0.179,-0.161 l0.18,-0.158 l0.183,-0.156 l0.184,-0.154 l0.186,-0.152 l0.188,-0.149 l0.19,-0.148 l0.192,-0.145 l0.193,-0.143 l0.195,-0.14 l0.197,-0.138 l0.199,-0.136 l0.2,-0.134 l0.202,-0.131 l0.204,-0.129 l0.205,-0.127 l0.207,-0.124 l0.209,-0.121 l0.21,-0.119 l0.212,-0.117 l0.213,-0.114 l0.215,-0.112 l0.216,-0.109 l0.218,-0.107 l0.219,-0.104 l0.221,-0.101 l0.222,-0.099 l0.224,-0.096 l0.225,-0.094 l0.227,-0.091 l0.113,-0.044 l0.114,-0.044 l0.115,-0.043 l0.114,-0.042 l0.115,-0.042 l0.116,-0.041 l0.115,-0.041 l0.116,-0.039 l0.117,-0.039 l0.116,-0.038 l0.117,-0.038 l0.118,-0.037 l0.117,-0.036 l0.118,-0.036 l0.118,-0.034 l0.119,-0.034 l0.119,-0.034 l0.119,-0.032 l0.119,-0.032 l0.12,-0.031 l0.12,-0.031 l0.12,-0.03 l0.12,-0.029 l0.121,-0.028 l0.121,-0.027 l0.122,-0.027 l0.121,-0.026 l0.122,-0.026 l0.122,-0.024 l0.123,-0.024 l0.123,-0.023 l0.123,-0.023 l0.123,-0.021 l0.123,-0.021 l0.124,-0.02 l0.124,-0.02 l0.124,-0.018 l0.125,-0.018 l0.125,-0.017 l0.125,-0.016 l0.125,-0.016 l0.125,-0.015 l0.126,-0.014 l0.126,-0.013 l0.126,-0.012 l0.127,-0.012 l0.126,-0.011 l0.127,-0.01 l0.127,-0.009 l0.128,-0.008 l0.127,-0.008 l0.128,-0.007 l0.128,-0.006 l0.128,-0.005 l0.128,-0.005 l0.129,-0.004 l0.129,-0.002 l0.129,-0.002 l0.129,-0.002 l0.129,0 l80,0 l0.129,0 M20.0655,2.0935 l-0.12,0 l-0.116,0.001 l-0.116,0.002 l-0.117,0.003 l-0.115,0.003 l-0.116,0.004 l-0.116,0.005 l-0.115,0.005 l-0.115,0.007 l-0.115,0.007 l-0.115,0.007 l-0.114,0.009 l-0.114,0.009 l-0.114,0.009 l-0.114,0.011 l-0.114,0.011 l-0.113,0.012 l-0.113,0.012 l-0.113,0.014 l-0.113,0.014 l-0.113,0.014 l-0.112,0.016 l-0.112,0.016 l-0.112,0.016 l-0.111,0.018 l-0.112,0.018 l-0.111,0.019 l-0.111,0.019 l-0.11,0.02 l-0.111,0.021 l-0.11,0.022 l-0.11,0.022 l-0.109,0.022 l-0.11,0.024 l-0.109,0.024 l-0.109,0.025 l-0.109,0.025 l-0.108,0.026 l-0.108,0.027 l-0.108,0.028 l-0.108,0.028 l-0.107,0.028 l-0.107,0.03 l-0.107,0.03 l-0.106,0.03 l-0.107,0.031 l-0.106,0.032 l-0.105,0.033 l-0.106,0.033 l-0.105,0.034 l-0.105,0.034 l-0.104,0.035 l-0.105,0.036 l-0.104,0.036 l-0.104,0.037 l-0.103,0.038 l-0.103,0.038 l-0.103,0.039 l-0.103,0.039 l-0.099,0.039 l-0.206,0.083 l-0.203,0.084 l-0.201,0.086 l-0.2,0.089 l-0.198,0.091 l-0.198,0.094 l-0.196,0.096 l-0.194,0.098 l-0.194,0.101 l-0.191,0.102 l-0.191,0.105 l-0.189,0.108 l-0.188,0.109 l-0.186,0.112 l-0.185,0.114 l-0.183,0.116 l-0.182,0.118 l-0.181,0.12 l-0.178,0.122 l-0.178,0.125 l-0.175,0.126 l-0.175,0.129 l-0.172,0.131 l-0.171,0.132 l-0.169,0.135 l-0.168,0.137 l-0.166,0.138 l-0.164,0.141 l-0.163,0.142 l-0.16,0.145 l-0.159,0.146 l-0.158,0.148 l-0.155,0.15 l-0.154,0.152 l-0.152,0.154 l-0.15,0.155 l-0.148,0.158 l-0.146,0.159 l-0.145,0.16 l-0.142,0.163 l-0.141,0.164 l-0.138,0.166 l-0.137,0.168 l-0.135,0.169 l-0.132,0.171 l-0.131,0.172 l-0.129,0.175 l-0.126,0.175 l-0.125,0.178 l-0.122,0.178 l-0.12,0.181 l-0.118,0.182 l-0.116,0.183 l-0.114,0.185 l-0.112,0.186 l-0.109,0.188 l-0.108,0.189 l-0.105,0.19 l-0.102,0.192 l-0.101,0.194 l-0.098,0.194 l-0.096,0.196 l-0.094,0.198 l-0.091,0.198 l-0.089,0.2 l-0.086,0.201 l-0.084,0.203 l-0.083,0.206 l-0.039,0.099 l-0.039,0.103 l-0.039,0.103 l-0.038,0.103 l-0.038,0.103 l-0.037,0.104 l-0.036,0.104 l-0.036,0.104 l-0.035,0.105 l-0.034,0.105 l-0.034,0.105 l-0.033,0.106 l-0.033,0.105 l-0.031,0.106 l-0.032,0.107 l-0.03,0.106 l-0.03,0.107 l-0.03,0.107 l-0.028,0.107 l-0.028,0.108 l-0.028,0.108 l-0.027,0.108 l-0.026,0.108 l-0.025,0.109 l-0.025,0.109 l-0.024,0.109 l-0.023,0.11 l-0.023,0.109 l-0.022,0.11 l-0.022,0.11 l-0.021,0.111 l-0.02,0.11 l-0.019,0.111 l-0.019,0.111 l-0.018,0.112 l-0.017,0.111 l-0.017,0.112 l-0.016,0.112 l-0.016,0.112 l-0.014,0.113 l-0.014,0.113 l-0.014,0.113 l-0.012,0.113 l-0.012,0.113 l-0.011,0.114 l-0.011,0.114 l-0.009,0.114 l-0.009,0.114 l-0.009,0.114 l-0.007,0.115 l-0.007,0.115 l-0.007,0.115 l-0.005,0.115 l-0.005,0.116 l-0.004,0.116 l-0.003,0.115 l-0.003,0.117 l-0.002,0.116 l-0.001,0.116 l0,0.117 l0,0.117 l0.001,0.116 l0.002,0.116 l0.003,0.117 l0.003,0.115 l0.004,0.116 l0.005,0.116 l0.005,0.115 l0.007,0.115 l0.007,0.115 l0.007,0.115 l0.009,0.114 l0.009,0.114 l0.009,0.114 l0.011,0.114 l0.011,0.114 l0.012,0.113 l0.012,0.113 l0.014,0.113 l0.014,0.113 l0.014,0.113 l0.016,0.112 l0.016,0.112 l0.017,0.112 l0.017,0.111 l0.018,0.112 l0.019,0.111 l0.019,0.111 l0.02,0.11 l0.021,0.111 l0.022,0.11 l0.022,0.11 l0.023,0.109 l0.023,0.11 l0.024,0.109 l0.025,0.109 l0.025,0.109 l0.026,0.108 l0.027,0.108 l0.028,0.108 l0.028,0.108 l0.028,0.107 l0.03,0.107 l0.03,0.107 l0.03,0.106 l0.032,0.107 l0.031,0.106 l0.033,0.105 l0.033,0.106 l0.034,0.105 l0.034,0.105 l0.035,0.104 l0.036,0.105 l0.036,0.104 l0.037,0.104 l0.038,0.103 l0.038,0.103 l0.039,0.103 l0.039,0.103 l0.039,0.099 l0.083,0.206 l0.084,0.203 l0.086,0.201 l0.089,0.2 l0.091,0.198 l0.094,0.198 l0.096,0.196 l0.098,0.194 l0.101,0.194 l0.102,0.191 l0.105,0.191 l0.108,0.189 l0.109,0.188 l0.112,0.186 l0.114,0.185 l0.116,0.183 l0.118,0.182 l0.12,0.181 l0.122,0.178 l0.125,0.178 l0.126,0.175 l0.129,0.174 l0.131,0.173 l0.132,0.171 l0.135,0.169 l0.137,0.168 l0.138,0.166 l0.141,0.164 l0.142,0.163 l0.145,0.16 l0.146,0.159 l0.148,0.158 l0.15,0.155 l0.152,0.154 l0.154,0.152 l0.155,0.15 l0.158,0.148 l0.159,0.146 l0.16,0.145 l0.163,0.142 l0.164,0.141 l0.166,0.138 l0.168,0.137 l0.169,0.135 l0.171,0.132 l0.172,0.131 l0.175,0.129 l0.175,0.126 l0.178,0.125 l0.178,0.122 l0.181,0.12 l0.182,0.118 l0.183,0.116 l0.185,0.114 l0.186,0.112 l0.188,0.109 l0.189,0.108 l0.191,0.105 l0.191,0.102 l0.194,0.101 l0.194,0.098 l0.196,0.096 l0.198,0.094 l0.198,0.091 l0.2,0.089 l0.201,0.086 l0.203,0.084 l0.206,0.083 l0.099,0.039 l0.103,0.039 l0.103,0.039 l0.103,0.038 l0.103,0.038 l0.104,0.037 l0.104,0.036 l0.105,0.036 l0.104,0.035 l0.105,0.034 l0.105,0.034 l0.106,0.033 l0.105,0.033 l0.106,0.031 l0.107,0.032 l0.106,0.03 l0.107,0.03 l0.107,0.03 l0.107,0.028 l0.108,0.028 l0.108,0.028 l0.108,0.027 l0.108,0.026 l0.109,0.025 l0.109,0.025 l0.109,0.024 l0.11,0.023 l0.109,0.023 l0.11,0.022 l0.11,0.022 l0.111,0.021 l0.11,0.02 l0.111,0.019 l0.111,0.019 l0.112,0.018 l0.111,0.017 l0.112,0.017 l0.112,0.016 l0.112,0.016 l0.113,0.014 l0.113,0.014 l0.113,0.013 l0.113,0.013 l0.113,0.012 l0.114,0.011 l0.114,0.011 l0.114,0.009 l0.114,0.009 l0.114,0.009 l0.115,0.007 l0.115,0.007 l0.115,0.006 l0.115,0.006 l0.116,0.005 l0.116,0.004 l0.115,0.003 l0.117,0.003 l0.116,0.001 l0.116,0.002 l0.12,0 l79.994,0 l0.12,0 l0.116,-0.002 l0.116,-0.001 l0.117,-0.003 l0.115,-0.003 l0.116,-0.004 l0.116,-0.005 l0.115,-0.006 l0.115,-0.006 l0.115,-0.007 l0.115,-0.007 l0.114,-0.009 l0.114,-0.009 l0.114,-0.009 l0.114,-0.011 l0.114,-0.011 l0.113,-0.012 l0.113,-0.013 l0.113,-0.013 l0.113,-0.014 l0.113,-0.014 l0.112,-0.016 l0.112,-0.016 l0.112,-0.017 l0.111,-0.017 l0.112,-0.018 l0.111,-0.019 l0.111,-0.019 l0.11,-0.02 l0.111,-0.021 l0.11,-0.022 l0.11,-0.022 l0.109,-0.023 l0.11,-0.023 l0.109,-0.024 l0.109,-0.025 l0.109,-0.025 l0.108,-0.026 l0.108,-0.027 l0.108,-0.028 l0.108,-0.028 l0.107,-0.028 l0.107,-0.03 l0.107,-0.03 l0.106,-0.03 l0.107,-0.032 l0.106,-0.031 l0.105,-0.033 l0.106,-0.033 l0.105,-0.034 l0.105,-0.034 l0.104,-0.035 l0.105,-0.036 l0.104,-0.036 l0.104,-0.037 l0.103,-0.038 l0.103,-0.038 l0.103,-0.039 l0.103,-0.039 l0.099,-0.039 l0.206,-0.083 l0.203,-0.084 l0.201,-0.086 l0.2,-0.089 l0.198,-0.091 l0.198,-0.094 l0.196,-0.096 l0.194,-0.098 l0.194,-0.101 l0.191,-0.102 l0.191,-0.105 l0.189,-0.108 l0.188,-0.109 l0.186,-0.112 l0.185,-0.114 l0.183,-0.116 l0.182,-0.118 l0.181,-0.12 l0.178,-0.122 l0.178,-0.125 l0.175,-0.126 l0.174,-0.129 l0.173,-0.131 l0.171,-0.132 l0.169,-0.135 l0.168,-0.137 l0.166,-0.138 l0.164,-0.141 l0.163,-0.142 l0.16,-0.145 l0.159,-0.146 l0.158,-0.148 l0.155,-0.15 l0.154,-0.152 l0.152,-0.154 l0.15,-0.155 l0.148,-0.158 l0.146,-0.159 l0.145,-0.16 l0.142,-0.163 l0.141,-0.164 l0.138,-0.166 l0.137,-0.168 l0.135,-0.169 l0.132,-0.171 l0.131,-0.173 l0.129,-0.174 l0.126,-0.175 l0.125,-0.178 l0.122,-0.178 l0.12,-0.181 l0.118,-0.182 l0.116,-0.183 l0.114,-0.185 l0.112,-0.186 l0.109,-0.188 l0.108,-0.189 l0.105,-0.191 l0.102,-0.192 l0.101,-0.193 l0.098,-0.194 l0.096,-0.196 l0.094,-0.198 l0.091,-0.198 l0.089,-0.2 l0.086,-0.201 l0.084,-0.203 l0.083,-0.206 l0.039,-0.099 l0.039,-0.103 l0.039,-0.103 l0.038,-0.103 l0.038,-0.103 l0.037,-0.104 l0.036,-0.104 l0.036,-0.105 l0.035,-0.104 l0.034,-0.105 l0.034,-0.105 l0.033,-0.106 l0.033,-0.105 l0.032,-0.106 l0.031,-0.107 l0.03,-0.106 l0.03,-0.107 l0.03,-0.107 l0.028,-0.108 l0.028,-0.107 l0.028,-0.108 l0.027,-0.108 l0.026,-0.108 l0.025,-0.109 l0.025,-0.109 l0.024,-0.109 l0.023,-0.11 l0.023,-0.109 l0.022,-0.11 l0.022,-0.11 l0.021,-0.111 l0.02,-0.11 l0.019,-0.111 l0.019,-0.111 l0.018,-0.112 l0.017,-0.111 l0.017,-0.112 l0.016,-0.112 l0.016,-0.112 l0.014,-0.113 l0.014,-0.113 l0.014,-0.113 l0.012,-0.113 l0.012,-0.113 l0.011,-0.114 l0.011,-0.114 l0.009,-0.114 l0.009,-0.114 l0.009,-0.114 l0.007,-0.115 l0.007,-0.115 l0.007,-0.115 l0.005,-0.115 l0.005,-0.116 l0.004,-0.116 l0.003,-0.115 l0.003,-0.117 l0.002,-0.116 l0.001,-0.116 l0,-0.117 l0,-0.117 l-0.001,-0.116 l-0.002,-0.117 l-0.003,-0.116 l-0.003,-0.115 l-0.004,-0.116 l-0.005,-0.116 l-0.005,-0.115 l-0.007,-0.115 l-0.007,-0.115 l-0.007,-0.115 l-0.009,-0.114 l-0.009,-0.114 l-0.009,-0.114 l-0.011,-0.114 l-0.011,-0.114 l-0.012,-0.113 l-0.012,-0.113 l-0.014,-0.113 l-0.014,-0.113 l-0.014,-0.113 l-0.016,-0.112 l-0.016,-0.112 l-0.017,-0.112 l-0.017,-0.111 l-0.018,-0.112 l-0.019,-0.111 l-0.019,-0.111 l-0.02,-0.11 l-0.021,-0.111 l-0.022,-0.11 l-0.022,-0.11 l-0.023,-0.109 l-0.023,-0.11 l-0.024,-0.109 l-0.025,-0.109 l-0.025,-0.109 l-0.026,-0.108 l-0.027,-0.108 l-0.028,-0.108 l-0.028,-0.108 l-0.028,-0.107 l-0.03,-0.107 l-0.03,-0.107 l-0.03,-0.106 l-0.031,-0.107 l-0.032,-0.106 l-0.033,-0.105 l-0.033,-0.106 l-0.034,-0.105 l-0.034,-0.105 l-0.035,-0.105 l-0.036,-0.104 l-0.036,-0.104 l-0.037,-0.104 l-0.038,-0.103 l-0.038,-0.103 l-0.039,-0.103 l-0.039,-0.103 l-0.039,-0.099 l-0.083,-0.206 l-0.084,-0.203 l-0.086,-0.201 l-0.089,-0.2 l-0.091,-0.198 l-0.094,-0.198 l-0.096,-0.196 l-0.098,-0.194 l-0.101,-0.194 l-0.102,-0.192 l-0.105,-0.19 l-0.108,-0.189 l-0.109,-0.188 l-0.112,-0.186 l-0.114,-0.185 l-0.116,-0.183 l-0.118,-0.182 l-0.12,-0.181 l-0.122,-0.178 l-0.125,-0.178 l-0.126,-0.175 l-0.129,-0.175 l-0.131,-0.172 l-0.132,-0.171 l-0.135,-0.169 l-0.137,-0.168 l-0.138,-0.166 l-0.141,-0.164 l-0.142,-0.163 l-0.145,-0.16 l-0.146,-0.159 l-0.148,-0.158 l-0.15,-0.155 l-0.152,-0.154 l-0.154,-0.152 l-0.155,-0.15 l-0.158,-0.148 l-0.159,-0.146 l-0.16,-0.145 l-0.163,-0.142 l-0.164,-0.141 l-0.166,-0.138 l-0.168,-0.137 l-0.169,-0.135 l-0.171,-0.132 l-0.173,-0.131 l-0.174,-0.129 l-0.175,-0.126 l-0.178,-0.125 l-0.178,-0.122 l-0.181,-0.12 l-0.182,-0.118 l-0.183,-0.116 l-0.185,-0.114 l-0.186,-0.112 l-0.188,-0.109 l-0.189,-0.108 l-0.191,-0.105 l-0.191,-0.102 l-0.194,-0.101 l-0.194,-0.098 l-0.196,-0.096 l-0.198,-0.094 l-0.198,-0.091 l-0.2,-0.089 l-0.201,-0.086 l-0.203,-0.084 l-0.206,-0.083 l-0.099,-0.039 l-0.103,-0.04 l-0.103,-0.038 l-0.103,-0.038 l-0.103,-0.038 l-0.104,-0.037 l-0.104,-0.036 l-0.105,-0.036 l-0.104,-0.035 l-0.105,-0.034 l-0.105,-0.034 l-0.106,-0.033 l-0.105,-0.033 l-0.106,-0.032 l-0.107,-0.031 l-0.106,-0.03 l-0.107,-0.03 l-0.107,-0.03 l-0.107,-0.028 l-0.108,-0.028 l-0.108,-0.028 l-0.108,-0.027 l-0.108,-0.026 l-0.109,-0.025 l-0.109,-0.025 l-0.109,-0.024 l-0.11,-0.024 l-0.109,-0.022 l-0.11,-0.022 l-0.11,-0.022 l-0.111,-0.021 l-0.11,-0.02 l-0.111,-0.019 l-0.111,-0.019 l-0.112,-0.018 l-0.111,-0.018 l-0.112,-0.016 l-0.112,-0.016 l-0.112,-0.016 l-0.113,-0.014 l-0.113,-0.014 l-0.113,-0.014 l-0.113,-0.012 l-0.113,-0.012 l-0.114,-0.011 l-0.114,-0.011 l-0.114,-0.009 l-0.114,-0.009 l-0.114,-0.009 l-0.115,-0.007 l-0.115,-0.007 l-0.115,-0.007 l-0.115,-0.005 l-0.116,-0.005 l-0.116,-0.004 l-0.115,-0.003 l-0.117,-0.003 l-0.116,-0.002 l-0.116,-0.001 l-0.12,0 l-79.994,0  Z " style="fill:#b8d3f4;"></path><path d="M24.2125,18.3125 C23.8125,15.112499 21.4125,13.3125 18.2125,13.3125 C14.5125,13.3125 11.8125,15.9125 11.8125,20.412498 C11.8125,24.912498 14.5125,27.512501 18.2125,27.512501 C21.7125,27.512501 23.9125,25.112499 24.2125,22.612499 L21.2125,22.612499 C21.012501,24.112499 19.8125,24.912498 18.2125,24.912498 C16.112499,24.912498 14.7125,23.3125 14.7125,20.412498 C14.7125,17.512501 16.112499,15.9125 18.3125,15.9125 C19.9125,15.9125 21.012501,16.8125 21.2125,18.3125  Z M30.912498,27.512501 C34.112499,27.512501 36.012501,25.412498 36.012501,22.212502 C36.012501,18.9125 34.112499,16.8125 30.912498,16.8125 C27.8125,16.8125 25.8125,18.9125 25.8125,22.212502 C25.8125,25.412498 27.8125,27.512501 30.912498,27.512501  Z M30.912498,25.3125 C29.512501,25.3125 28.7125,23.912498 28.7125,22.112499 C28.7125,20.3125 29.512501,19.012501 30.912498,19.012501 C32.412498,19.012501 33.112499,20.3125 33.112499,22.112499 C33.112499,23.912498 32.412498,25.3125 30.912498,25.3125  Z M40.8125,21.3125 C40.8125,20.012501 41.612499,19.2125 42.712502,19.2125 C43.912498,19.2125 44.612499,19.912498 44.612499,21.212502 L44.612499,27.3125 L47.512501,27.3125 L47.512501,20.712502 C47.512501,18.3125 46.012501,16.8125 43.912498,16.8125 C42.3125,16.8125 41.212502,17.612499 40.8125,18.8125 L40.612499,18.8125 L40.612499,16.9125 L37.912498,16.9125 L37.912498,27.3125 L40.8125,27.3125  Z M55.212502,16.9125 L53.3125,16.9125 L53.3125,14.512501 L50.412498,14.512501 L50.412498,16.9125 L49.012501,16.9125 L49.012501,19.112499 L50.412498,19.112499 L50.412498,24.512501 C50.412498,26.512501 51.8125,27.512501 53.912498,27.412498 C54.612499,27.412498 55.112499,27.3125 55.412498,27.212502 L55.012501,25.012501 C54.8125,25.112499 54.512501,25.112499 54.212502,25.112499 C53.712502,25.112499 53.3125,24.912498 53.3125,24.112499 L53.3125,19.112499 L55.212502,19.112499  Z M57.112499,27.3125 L60.012501,27.3125 L60.012501,21.412498 C60.012501,20.212502 60.912498,19.3125 62.212502,19.3125 C62.612503,19.3125 63.112503,19.4125 63.412498,19.4125 L63.412498,16.9125 C63.112503,16.8125 62.8125,16.8125 62.512501,16.8125 C61.3125,16.8125 60.412498,17.512501 60.012501,18.7125 L59.912498,18.7125 L59.912498,16.9125 L57.112499,16.9125  Z M64.912498,27.3125 L67.712502,27.3125 L67.712502,16.9125 L64.912498,16.9125  Z M66.3125,15.612499 C67.212502,15.612499 67.912498,14.9125 67.912498,14.112499 C67.912498,13.3125 67.212502,12.7125 66.3125,12.7125 C65.512497,12.7125 64.8125,13.3125 64.8125,14.112499 C64.8125,14.9125 65.512497,15.612499 66.3125,15.612499  Z M70.112503,27.3125 L72.912498,27.3125 L72.912498,25.612499 L73.012497,25.612499 C73.412498,26.512501 74.3125,27.512501 76.012497,27.512501 C78.3125,27.512501 80.212502,25.612499 80.212502,22.112499 C80.212502,18.612499 78.3125,16.8125 76.012497,16.8125 C74.3125,16.8125 73.412498,17.8125 73.012497,18.7125 L73.012497,18.7125 L73.012497,13.512501 L70.112503,13.512501  Z M72.912498,22.112499 C72.912498,20.3125 73.712502,19.112499 75.112503,19.112499 C76.512497,19.112499 77.3125,20.3125 77.3125,22.112499 C77.3125,23.912498 76.512497,25.212502 75.112503,25.212502 C73.712502,25.212502 72.912498,24.012501 72.912498,22.112499  Z M88.712502,22.912498 C88.712502,24.3125 87.8125,25.012501 86.8125,25.012501 C85.712502,25.012501 85.012497,24.212502 85.012497,23.012501 L85.012497,16.9125 L82.112503,16.9125 L82.112503,23.512501 C82.112503,26.012501 83.512497,27.412498 85.612503,27.412498 C87.212502,27.412498 88.3125,26.612499 88.712502,25.412498 L88.912498,25.412498 L88.912498,27.3125 L91.612503,27.3125 L91.612503,16.9125 L88.712502,16.9125  Z M99.412498,16.9125 L97.512497,16.9125 L97.512497,14.512501 L94.612503,14.512501 L94.612503,16.9125 L93.212502,16.9125 L93.212502,19.112499 L94.612503,19.112499 L94.612503,24.512501 C94.612503,26.512501 96.012497,27.512501 98.112503,27.412498 C98.8125,27.412498 99.3125,27.3125 99.612503,27.212502 L99.212502,25.012501 C99.012497,25.112499 98.712502,25.112499 98.412498,25.112499 C97.912498,25.112499 97.512497,24.912498 97.512497,24.112499 L97.512497,19.112499 L99.412498,19.112499  Z M106.012497,27.512501 C108.612503,27.512501 110.3125,26.3125 110.712502,24.3125 L108.112503,24.212502 C107.8125,24.912498 107.012497,25.412498 106.112503,25.412498 C104.612503,25.412498 103.712502,24.412498 103.712502,22.912498 L103.712502,22.912498 L110.8125,22.912498 L110.8125,22.112499 C110.8125,18.512501 108.612503,16.8125 105.912498,16.8125 C102.912498,16.8125 100.912498,19.012501 100.912498,22.212502 C100.912498,25.512501 102.8125,27.512501 106.012497,27.512501  Z M103.712502,21.112499 C103.8125,19.912498 104.712502,18.9125 105.912498,18.9125 C107.212502,18.9125 108.112503,19.8125 108.112503,21.112499  Z " stroke-width="1" stroke="none" transform="" fill="#b9d4f4"></path></g></svg>