<svg width="88" height="88" fill="none" xmlns="http://www.w3.org/2000/svg"><path d="M44 88c24.3 0 44-19.7 44-44S68.3 0 44 0 0 19.7 0 44s19.7 44 44 44z" fill="#313233"/><path fill-rule="evenodd" clip-rule="evenodd" d="M51.447 58.105a1 1 0 0 1 .447 1.342L51 59c.895.447.894.448.894.448l-.002.003-.003.006-.008.016a3.362 3.362 0 0 1-.115.206 7.51 7.51 0 0 1-.34.524c-.3.424-.756.984-1.387 1.544C48.771 62.875 46.793 64 44 64c-1.666 0-3.052-.416-4.019-.83a9.473 9.473 0 0 1-1.136-.578 6.774 6.774 0 0 1-.403-.261l-.027-.02-.009-.007-.003-.002-.002-.001.6-.801-.6.8a1 1 0 0 1 1.196-1.602l.008.005.048.033c.046.032.12.08.22.14.202.122.506.288.896.455.783.335 1.898.669 3.231.669 2.207 0 3.73-.875 4.71-1.747.495-.44.852-.88 1.083-1.206a5.52 5.52 0 0 0 .304-.478l.01-.019v.001m0-.002zm1.34-.444a1 1 0 0 0-1.34.444l1.34-.444z" fill="#9D9FA3"/><path fill-rule="evenodd" clip-rule="evenodd" d="M55 34c-3.888 0-7.2 2.48-8.454 5.94A3.964 3.964 0 0 0 44 39a3.96 3.96 0 0 0-2.546.94C40.198 36.48 36.886 34 33 34c-4.962 0-9 4.036-9 9 0 4.962 4.038 9 9 9s9-4.038 9-9a2 2 0 0 1 4 0c0 4.962 4.038 9 9 9s9-4.038 9-9c0-4.964-4.038-9-9-9zm-32.498 3.094a1.004 1.004 0 0 0-1.326.492A12.868 12.868 0 0 0 20 43c0 .55.448 1 1 1s1-.45 1-1c0-1.602.334-3.142.994-4.58a1 1 0 0 0-.492-1.326zm42.994 0a.996.996 0 0 1 1.324.492A12.882 12.882 0 0 1 68 43c0 .55-.448 1-1 1s-1-.45-1-1c0-1.596-.336-3.136-.998-4.582a.998.998 0 0 1 .494-1.324z" fill="#fff"/></svg>