<?xml version="1.0" encoding="utf-8"?>
<svg viewBox="0 0 48 48" fill="none" stroke="currentColor" stroke-width="2" stroke-linecap="round" stroke-linejoin="round"
  xmlns="http://www.w3.org/2000/svg">
  <rect width="48" height="48" style="stroke-width: 1px; stroke: none; stroke-linecap: butt; fill: rgb(241, 245, 249);" rx="2.214" ry="2.214"/>
  <g transform="matrix(1, 0, 0, 1, 6.0005011558532715, 6.0005011558532715)">
    <path d="M 5.068 11.534 L 10.771 5.831 C 11.257 5.342 11.918 5.068 12.606 5.068 L 23.393 5.068 C 24.081 5.068 24.742 5.342 25.228 5.831 L 30.931 11.534" style="stroke: rgb(203, 213, 225);"/>
    <path d="M 7.654 17.999 L 7.654 28.345 C 7.654 29.774 8.811 30.931 10.24 30.931 L 25.759 30.931 C 27.188 30.931 28.345 29.774 28.345 28.345 L 28.345 17.999" style="stroke: rgb(203, 213, 225);"/>
    <path d="M 21.879 30.931 L 21.879 25.759 C 21.879 24.33 20.722 23.173 19.293 23.173 L 16.706 23.173 C 15.277 23.173 14.12 24.33 14.12 25.759 L 14.12 30.931" style="stroke: rgb(203, 213, 225);"/>
    <path d="M 5.068 11.534 L 30.931 11.534" style="stroke: rgb(203, 213, 225);"/>
    <path d="M 30.931 11.534 L 30.931 15.413 C 30.931 16.842 29.774 17.999 28.345 17.999 C 27.589 17.958 26.868 17.672 26.289 17.185 C 25.972 16.956 25.545 16.956 25.228 17.185 C 24.649 17.672 23.927 17.958 23.173 17.999 C 22.417 17.958 21.696 17.672 21.116 17.185 C 20.799 16.956 20.373 16.956 20.056 17.185 C 19.477 17.672 18.755 17.958 17.999 17.999 C 17.244 17.958 16.522 17.672 15.943 17.185 C 15.626 16.956 15.2 16.956 14.883 17.185 C 14.303 17.672 13.582 17.958 12.826 17.999 C 12.072 17.958 11.35 17.672 10.771 17.185 C 10.454 16.956 10.027 16.956 9.71 17.185 C 9.131 17.672 8.41 17.958 7.654 17.999 C 6.225 17.999 5.068 16.842 5.068 15.413 L 5.068 11.534" style="stroke: rgb(203, 213, 225);"/>
  </g>
</svg>